<?xml version="1.0" encoding="UTF-8" standalone="no"?>
<!DOCTYPE svg PUBLIC "-//W3C//DTD SVG 1.1//EN"
"http://www.w3.org/Graphics/SVG/1.1/DTD/svg11.dtd">
<svg viewBox="0 0 2933 11828" version="1.1" xmlns="http://www.w3.org/2000/svg" xmlns:xlink="http://www.w3.org/1999/xlink">
<defs>
<clipPath id="c0"><path d="M0,5044.7V3790.4H2933.3V5044.7Z"/></clipPath>
<clipPath id="c1"><path d="M0,11828.1V0H2933.3V11828.1Z"/></clipPath>
<clipPath id="c2"><path d="M0,1433.1V99.3H1147.4V1433.1Z"/></clipPath>
<clipPath id="c3"><path d="M0,11826.1V10567.6H2933.3v1258.5Z"/></clipPath>
<clipPath id="c4"><path d="M1467.8,5950.6V5324.1c0,-40,30.7,-72.8,69.8,-76.1h471.6v702.6Z"/></clipPath>
<clipPath id="c5"><path d="M2136.8,5950.6V5324.1c0,-42.2,34.2,-76.4,76.4,-76.4h465v702.9Z"/></clipPath>
<clipPath id="c6"><path d="M198.6,7222.4V6791.5c0,-29,23.5,-52.5,52.5,-52.5h749.4v483.4Z"/></clipPath>
<clipPath id="c7"><path d="M1072.6,7222.4V6791.5c0,-29,23.5,-52.5,52.6,-52.5h749.4v483.4Z"/></clipPath>
<clipPath id="c8"><path d="M1941.9,7222.4V6791.5c0,-29,23.5,-52.5,52.6,-52.5h749.4v483.4Z"/></clipPath>
<clipPath id="c9"><path d="M630.9,7772.6V7341.7c0,-29,23.6,-52.5,52.6,-52.5h749.4v483.4Z"/></clipPath>
<clipPath id="ca"><path d="M1505,7772.6V7341.7c0,-29,23.5,-52.5,52.5,-52.5h749.4v483.4Z"/></clipPath>
<clipPath id="cb"><path d="M487.4,163.2V62.6H854V163.2Z"/></clipPath>
<style type="text/css"><![CDATA[
.g0{
fill: #F2F2F2;
}
.g1{
fill: #FFF;
}
.g2{
fill: #0C93CB;
}
.g3{
fill: #09D;
}
.g4{
fill: none;
stroke: #09D;
stroke-width: 7.638;
stroke-miterlimit: 10;
}
.g5{
fill: #1D3B7C;
}
.g6{
fill: none;
stroke: #FFF;
stroke-width: 6.111;
stroke-linecap: round;
stroke-miterlimit: 10;
}
.g7{
fill: none;
stroke: #FFF;
stroke-width: 6.111;
stroke-linecap: round;
stroke-miterlimit: 10;
stroke-dasharray: 18,18;
}
.g8{
fill: #CCD6E8;
}
.g9{
fill: #00366B;
}
.ga{
fill: #00468D;
}
.gb{
fill: #ECECEC;
}
.gc{
fill: #EDEDED;
}
.gd{
fill: #EEE;
}
.ge{
fill: #EFEFEF;
}
.gf{
fill: #F0F0F0;
}
.gg{
fill: #F1F1F1;
}
.gh{
fill: #F3F3F3;
}
.gi{
fill: #F4F4F4;
}
.gj{
fill: #F5F5F5;
}
.gk{
fill: #F6F6F6;
}
.gl{
fill: #F7F7F7;
}
.gm{
fill: #F8F8F8;
}
.gn{
fill: none;
stroke: #FFF;
stroke-width: 1.527;
stroke-miterlimit: 10;
}
.go{
fill: none;
stroke: #FFF;
stroke-width: 4.583;
stroke-miterlimit: 10;
}
]]></style>
</defs>
<g clip-path="url(#c1)" opacity="0.2" style="mix-blend-mode: multiply;">
<image x="12" y="5024" width="2910" height="41" xlink:href="shade/1.png"/>
</g>
<image clip-path="url(#c0)" preserveAspectRatio="none" x="0" y="3628" width="2933" height="1957" xlink:href="img/1.jpg"/>
<g clip-path="url(#c0)" style="mix-blend-mode: overlay;">
<g opacity="0.5" style="mix-blend-mode: lighten;">
<image preserveAspectRatio="none" x="1314" y="3346" width="1949" height="1700" xlink:href="img/2.png"/>
<g clip-path="url(#c0)">
<image preserveAspectRatio="none" x="1314" y="3769" width="1949" height="1700" xlink:href="img/3.png"/>
<image preserveAspectRatio="none" x="1314" y="4201" width="1949" height="1701" xlink:href="img/4.png"/>
</g>
</g>
</g>
<path d="M0,8749.6H2933.3v-440H0v440Z" class="g0"/>
<path d="M0,9962.6H2933.3v-252H0v252Z" class="g0"/>
<path d="M.3,8069.7h2933V6407.5H.3V8069.7Z" class="g1"/>
<g clip-path="url(#c1)" opacity="0.2" style="mix-blend-mode: multiply;">
<image x="12" y="3604" width="2910" height="40" xlink:href="shade/2.png"/>
</g>
<g clip-path="url(#c1)" opacity="0.2" style="mix-blend-mode: multiply;">
<image x="12" y="7897" width="2910" height="40" xlink:href="shade/3.png"/>
</g>
<g clip-path="url(#c1)" opacity="0.2" style="mix-blend-mode: multiply;">
<image x="12" y="10544" width="2910" height="41" xlink:href="shade/4.png"/>
</g>
<path d="M.3,3628.5h2933V3309.2H.3v319.3Z" class="g0"/>
<image x="0" y="0" width="2934" height="1429" xlink:href="shade/5.png"/>
<g clip-path="url(#c1)" opacity="0.2" style="mix-blend-mode: lighten;">
<image preserveAspectRatio="none" x="675" y="-905" width="2355" height="2054" xlink:href="img/5.png"/>
<g clip-path="url(#c1)">
<image preserveAspectRatio="none" x="675" y="-393" width="2355" height="2054" xlink:href="img/6.png"/>
<image preserveAspectRatio="none" x="675" y="128" width="2355" height="2055" xlink:href="img/7.png"/>
</g>
</g>
<image clip-path="url(#c2)" preserveAspectRatio="none" x="-645" y="99" width="2388" height="1345" xlink:href="img/8.png"/>
<g clip-path="url(#c1)" opacity="0.3" style="mix-blend-mode: multiply;">
<image preserveAspectRatio="none" x="138" y="1309" width="2664" height="755" xlink:href="img/9.png"/>
</g>
<path d="M2771.4,2027.4H161.9V1374.2c0,-25.3,20.6,-45.8,45.9,-45.8H2771.4Z" class="g1"/>
<path d="M2933.3,895.3h-102c-8.8,0,-16,-7.2,-16,-16.1V549.1c0,-8.8,7.2,-16,16,-16h102Z" class="g2"/>
<path d="M2890.7,633.8v0Z" class="g1"/>
<path d="M2889.1,637.8c-.8,.3,-1.5,.2,-1.5,.2v-.1c.8,-.7,2.8,-2.6,3.1,-3.5c.1,-.4,0,-.6,0,-.6l-2.6,1.1l-2.1,1c-1.5,-1.6,-3.8,-2.6,-6.3,-2.6c-4.4,0,-8,3.2,-8,7.1c0,.7,.1,2,.3,2.6c0,.2,0,-.2,0,0c-2.9,-.1,-6.6,-1.2,-9.8,-2.9c-6.5,-3.3,-6.9,-5.5,-6.9,-5.5c-1,1,-1.5,4.6,-.5,7.4c.7,1.8,2.9,3.4,2.9,3.4c0,0,-1,0,-2.1,-.3c-1,-.4,-1.4,-.7,-1.4,-.7c-.6,1.5,.6,4.2,2.8,6.2c1.3,1.2,3.6,1.9,3.6,1.9l-3.6,.1c-.2,3.5,7.4,5.6,7.4,5.6c-2.3,1.7,-4.8,2.8,-7.6,2.8c-1.5,0,-2.8,-.2,-4.2,-.6c3.7,3,8.4,5.1,13.5,4.8c13.6,-.7,21.3,-12.4,21.7,-23.9c0,0,.6,-.3,2,-1.6c1.4,-1.4,2.2,-3,2.2,-3c0,0,-2,.9,-2.9,1.1Z" class="g1"/>
<path d="M2890.7,633.8c0,.2,0,0,0,0Z" class="g1"/>
<path d="M2859.7,762.5c2.7,0,4.9,2.1,4.9,4.8c0,2.7,-2.2,4.8,-4.9,4.8c-2.7,0,-4.8,-2.1,-4.8,-4.8c0,-2.7,2.1,-4.8,4.8,-4.8m-4.2,13.3h8.4v26.9h-8.4V775.8Z" class="g1"/>
<path d="M2869.1,775.8h8.1v3.7h.1c1.1,-2.1,3.8,-4.4,7.9,-4.4c8.4,0,10,5.6,10,12.8v14.8h-8.4V789.6c0,-3.1,0,-7.1,-4.3,-7.1c-4.3,0,-5,3.4,-5,6.9v13.3h-8.4Z" class="g1"/>
<g clip-path="url(#c1)" opacity="0.3" style="mix-blend-mode: multiply;">
<image preserveAspectRatio="none" x="281" y="3239" width="381" height="477" xlink:href="img/10.png"/>
</g>
<image x="306" y="3257" width="325" height="422" xlink:href="shade/6.png"/>
<g clip-path="url(#c1)">
<image preserveAspectRatio="none" x="373" y="3390" width="67" height="86" xlink:href="img/11.png"/>
<image preserveAspectRatio="none" x="373" y="3422" width="67" height="86" xlink:href="img/12.png"/>
<image preserveAspectRatio="none" x="373" y="3454" width="67" height="86" xlink:href="img/13.png"/>
<image preserveAspectRatio="none" x="373" y="3279" width="146" height="128" xlink:href="img/14.png"/>
<image preserveAspectRatio="none" x="373" y="3311" width="146" height="128" xlink:href="img/15.png"/>
<image preserveAspectRatio="none" x="373" y="3343" width="146" height="128" xlink:href="img/16.png"/>
</g>
<path d="M463.3,3462.6v43.6h9.9c7.6,0,11.5,-3.6,11.5,-10.7v-22.4c0,-7,-3.9,-10.5,-11.5,-10.5Zm-5,-4h15.4c5.5,0,9.6,1.2,12.1,3.8c2.6,2.5,3.8,6.2,3.8,10.9v22c0,4.7,-1.2,8.3,-3.8,10.9c-2.5,2.7,-6.6,4,-12.1,4H463.3v30.3h-5Z" class="g1"/>
<path d="M513.3,3476.8h-.7c-3.3,0,-6.1,1,-8.2,2.9c-2.2,2,-3.4,4.8,-3.5,8.6v52.2H496V3472h4.9v8.6h.2c.8,-2.3,2.2,-4.3,4.2,-6.1c1.9,-1.8,4.6,-2.8,8,-2.9Z" class="g1"/>
<path d="M518.4,3472h4.8v68.5h-4.8V3472Zm0,-13.4h4.8v4.8h-4.8v-4.8Z" class="g1"/>
<path d="M561.9,3472l-13.2,32.6l13.5,35.9h-4.9l-12.1,-31.9l-12.8,31.9h-4.8l14.3,-36L528.8,3472h4.9l11.7,29L557,3472Z" class="g1"/>
<g clip-path="url(#c1)" opacity="0.3" style="mix-blend-mode: multiply;">
<image preserveAspectRatio="none" x="692" y="3239" width="382" height="477" xlink:href="img/17.png"/>
</g>
<image x="717" y="3257" width="326" height="422" xlink:href="shade/7.png"/>
<g clip-path="url(#c1)">
<image preserveAspectRatio="none" x="785" y="3390" width="68" height="86" xlink:href="img/18.png"/>
<image preserveAspectRatio="none" x="785" y="3422" width="68" height="86" xlink:href="img/19.png"/>
<image preserveAspectRatio="none" x="785" y="3454" width="68" height="86" xlink:href="img/20.png"/>
<image preserveAspectRatio="none" x="785" y="3279" width="147" height="128" xlink:href="img/21.png"/>
<image preserveAspectRatio="none" x="785" y="3311" width="147" height="128" xlink:href="img/22.png"/>
<image preserveAspectRatio="none" x="785" y="3343" width="147" height="128" xlink:href="img/23.png"/>
</g>
<path d="M875.8,3462.6v43.6h9.9c7.6,0,11.5,-3.6,11.5,-10.7v-22.4c0,-7,-3.9,-10.5,-11.5,-10.5Zm-5,-4h15.4c5.5,0,9.6,1.2,12.1,3.8c2.6,2.5,3.8,6.2,3.8,10.9v22c0,4.7,-1.2,8.3,-3.8,10.9c-2.5,2.7,-6.6,4,-12.1,4H875.8v30.3h-5Z" class="g1"/>
<path d="M925.8,3476.8h-.7c-3.3,0,-6.1,1,-8.2,2.9c-2.2,2,-3.4,4.8,-3.5,8.6v52.2h-4.9V3472h4.9v8.6h.2c.8,-2.3,2.2,-4.3,4.2,-6.1c1.9,-1.8,4.6,-2.8,8,-2.9Z" class="g1"/>
<path d="M930.9,3472h4.8v68.5h-4.8V3472Zm0,-13.4h4.8v4.8h-4.8v-4.8Z" class="g1"/>
<path d="M974.4,3472l-13.2,32.6l13.5,35.9h-4.9l-12.1,-31.9l-12.8,31.9h-4.8l14.3,-36L941.3,3472h4.9l11.7,29l11.6,-29Z" class="g1"/>
<g clip-path="url(#c1)" opacity="0.3" style="mix-blend-mode: multiply;">
<image preserveAspectRatio="none" x="1103" y="3239" width="382" height="478" xlink:href="img/24.png"/>
</g>
<image x="1128" y="3257" width="327" height="424" xlink:href="shade/8.png"/>
<g clip-path="url(#c1)">
<image preserveAspectRatio="none" x="1190" y="3390" width="69" height="86" xlink:href="img/25.png"/>
<image preserveAspectRatio="none" x="1190" y="3422" width="69" height="86" xlink:href="img/26.png"/>
<image preserveAspectRatio="none" x="1190" y="3454" width="69" height="86" xlink:href="img/27.png"/>
<image preserveAspectRatio="none" x="1190" y="3279" width="148" height="128" xlink:href="img/28.png"/>
<image preserveAspectRatio="none" x="1190" y="3311" width="148" height="128" xlink:href="img/29.png"/>
<image preserveAspectRatio="none" x="1190" y="3343" width="148" height="130" xlink:href="img/30.png"/>
</g>
<path d="M1282.1,3463.3v43.8h10c7.7,0,11.5,-3.6,11.5,-10.7v-22.5c0,-7.1,-3.8,-10.6,-11.5,-10.6Zm-4.9,-4h15.4c5.5,0,9.6,1.3,12.2,3.8c2.5,2.6,3.8,6.2,3.8,11v22.1c0,4.7,-1.3,8.3,-3.8,10.9c-2.6,2.7,-6.7,4,-12.2,4h-10.5v30.4h-4.9Z" class="g1"/>
<path d="M1332.3,3477.6h-.7c-3.3,0,-6.1,1,-8.2,2.9c-2.2,2,-3.4,4.8,-3.5,8.6v52.4H1315v-68.7h4.9v8.6h.2c.8,-2.3,2.2,-4.3,4.2,-6.1c2,-1.9,4.6,-2.8,8,-2.9Z" class="g1"/>
<path d="M1337.4,3472.8h4.9v68.7h-4.9v-68.7Zm0,-13.5h4.9v4.9h-4.9v-4.9Z" class="g1"/>
<path d="M1381.1,3472.8l-13.2,32.7l13.5,36h-4.9l-12.2,-32l-12.8,32h-4.9l14.5,-36.1l-13.2,-32.6h4.9l11.8,29.1l11.6,-29.1Z" class="g1"/>
<g clip-path="url(#c1)" opacity="0.3" style="mix-blend-mode: multiply;">
<image preserveAspectRatio="none" x="1516" y="3239" width="380" height="477" xlink:href="img/31.png"/>
</g>
<image x="1540" y="3257" width="325" height="422" xlink:href="shade/9.png"/>
<g clip-path="url(#c1)">
<image preserveAspectRatio="none" x="1607" y="3390" width="67" height="86" xlink:href="img/32.png"/>
<image preserveAspectRatio="none" x="1607" y="3422" width="67" height="86" xlink:href="img/33.png"/>
<image preserveAspectRatio="none" x="1607" y="3454" width="67" height="86" xlink:href="img/34.png"/>
<image preserveAspectRatio="none" x="1607" y="3279" width="147" height="128" xlink:href="img/35.png"/>
<image preserveAspectRatio="none" x="1607" y="3311" width="147" height="128" xlink:href="img/36.png"/>
<image preserveAspectRatio="none" x="1607" y="3343" width="147" height="128" xlink:href="img/37.png"/>
</g>
<path d="M1697.7,3462.6v43.6h9.9c7.7,0,11.5,-3.6,11.5,-10.7v-22.4c0,-7,-3.8,-10.5,-11.5,-10.5Zm-4.9,-4h15.3c5.6,0,9.6,1.2,12.2,3.8c2.5,2.5,3.8,6.2,3.8,10.9v22c0,4.7,-1.3,8.3,-3.8,10.9c-2.6,2.7,-6.6,4,-12.2,4h-10.4v30.3h-4.9Z" class="g1"/>
<path d="M1747.7,3476.8h-.7c-3.3,0,-6,1,-8.2,2.9c-2.2,2,-3.3,4.8,-3.5,8.6v52.2h-4.8V3472h4.8v8.6h.2c.8,-2.3,2.2,-4.3,4.2,-6.1c2,-1.8,4.7,-2.8,8,-2.9Z" class="g1"/>
<path d="M1752.8,3472h4.9v68.5h-4.9V3472Zm0,-13.4h4.9v4.8h-4.9v-4.8Z" class="g1"/>
<path d="M1796.3,3472l-13.2,32.6l13.6,35.9h-5l-12.1,-31.9l-12.8,31.9H1762l14.4,-36L1763.2,3472h5l11.7,29l11.6,-29Z" class="g1"/>
<g clip-path="url(#c1)" opacity="0.3" style="mix-blend-mode: multiply;">
<image preserveAspectRatio="none" x="1927" y="3239" width="380" height="477" xlink:href="img/38.png"/>
</g>
<image x="1951" y="3257" width="326" height="422" xlink:href="shade/10.png"/>
<g clip-path="url(#c1)">
<image preserveAspectRatio="none" x="2020" y="3390" width="67" height="86" xlink:href="img/39.png"/>
<image preserveAspectRatio="none" x="2020" y="3422" width="67" height="86" xlink:href="img/40.png"/>
<image preserveAspectRatio="none" x="2020" y="3454" width="67" height="86" xlink:href="img/41.png"/>
<image preserveAspectRatio="none" x="2020" y="3279" width="146" height="128" xlink:href="img/42.png"/>
<image preserveAspectRatio="none" x="2020" y="3311" width="146" height="128" xlink:href="img/43.png"/>
<image preserveAspectRatio="none" x="2020" y="3343" width="146" height="128" xlink:href="img/44.png"/>
</g>
<path d="M2110.2,3462.6v43.6h9.9c7.7,0,11.5,-3.6,11.5,-10.7v-22.4c0,-7,-3.8,-10.5,-11.5,-10.5Zm-4.9,-4h15.3c5.6,0,9.6,1.2,12.2,3.8c2.5,2.5,3.8,6.2,3.8,10.9v22c0,4.7,-1.3,8.3,-3.8,10.9c-2.6,2.7,-6.6,4,-12.2,4h-10.4v30.3h-4.9Z" class="g1"/>
<path d="M2160.2,3476.8h-.7c-3.3,0,-6,1,-8.2,2.9c-2.2,2,-3.3,4.8,-3.5,8.6v52.2H2143V3472h4.8v8.6h.2c.8,-2.3,2.2,-4.3,4.2,-6.1c2,-1.8,4.7,-2.8,8,-2.9Z" class="g1"/>
<path d="M2165.3,3472h4.9v68.5h-4.9V3472Zm0,-13.4h4.9v4.8h-4.9v-4.8Z" class="g1"/>
<path d="M2208.8,3472l-13.2,32.6l13.6,35.9h-5l-12.1,-31.9l-12.8,31.9h-4.8l14.4,-36L2175.7,3472h5l11.7,29l11.6,-29Z" class="g1"/>
<g clip-path="url(#c1)" opacity="0.3" style="mix-blend-mode: multiply;">
<image preserveAspectRatio="none" x="2338" y="3239" width="380" height="477" xlink:href="img/45.png"/>
</g>
<image x="2362" y="3257" width="326" height="422" xlink:href="shade/11.png"/>
<g clip-path="url(#c1)">
<image preserveAspectRatio="none" x="2431" y="3390" width="67" height="86" xlink:href="img/46.png"/>
<image preserveAspectRatio="none" x="2431" y="3422" width="67" height="86" xlink:href="img/47.png"/>
<image preserveAspectRatio="none" x="2431" y="3454" width="67" height="86" xlink:href="img/48.png"/>
<image preserveAspectRatio="none" x="2431" y="3279" width="146" height="128" xlink:href="img/49.png"/>
<image preserveAspectRatio="none" x="2431" y="3311" width="146" height="128" xlink:href="img/50.png"/>
<image preserveAspectRatio="none" x="2431" y="3343" width="146" height="128" xlink:href="img/51.png"/>
</g>
<path d="M2521.2,3462.6v43.6h9.9c7.7,0,11.5,-3.6,11.5,-10.7v-22.4c0,-7,-3.8,-10.5,-11.5,-10.5Zm-4.9,-4h15.3c5.6,0,9.6,1.2,12.1,3.8c2.6,2.5,3.8,6.2,3.8,10.9v22c0,4.7,-1.2,8.3,-3.8,10.9c-2.5,2.7,-6.5,4,-12.1,4h-10.4v30.3h-4.9Z" class="g1"/>
<path d="M2571.2,3476.8h-.7c-3.3,0,-6,1,-8.2,2.9c-2.2,2,-3.4,4.8,-3.5,8.6v52.2h-4.9V3472h4.9v8.6h.2c.8,-2.3,2.2,-4.3,4.2,-6.1c2,-1.8,4.6,-2.8,8,-2.9Z" class="g1"/>
<path d="M2576.3,3472h4.8v68.5h-4.8V3472Zm0,-13.4h4.8v4.8h-4.8v-4.8Z" class="g1"/>
<path d="M2619.8,3472l-13.2,32.6l13.5,35.9h-4.9l-12.1,-31.9l-12.8,31.9h-4.8l14.3,-36L2586.7,3472h4.9l11.8,29l11.6,-29Z" class="g1"/>
<image clip-path="url(#c3)" preserveAspectRatio="none" x="0" y="10298" width="2933" height="1650" xlink:href="img/52.jpg"/>
<g clip-path="url(#c1)" opacity="0.3" style="mix-blend-mode: multiply;">
<image preserveAspectRatio="none" x="1089" y="5228" width="1389" height="807" xlink:href="img/53.png"/>
</g>
<image clip-path="url(#c4)" preserveAspectRatio="none" x="1114" y="5248" width="1333" height="750" xlink:href="img/54.jpg"/>
<g clip-path="url(#c1)" opacity="0.3" style="mix-blend-mode: multiply;">
<image preserveAspectRatio="none" x="2107" y="5153" width="677" height="987" xlink:href="img/55.png"/>
</g>
<image clip-path="url(#c5)" preserveAspectRatio="none" x="2131" y="5172" width="622" height="932" xlink:href="img/56.jpg"/>
<g clip-path="url(#c1)" opacity="0.2" style="mix-blend-mode: multiply;">
<image x="12" y="6234" width="2910" height="41" xlink:href="shade/12.png"/>
</g>
<path clip-path="url(#c1)" d="M2933.8,7916.9H.3V6254.7H2933.8V7916.9Z" class="g0"/>
<g clip-path="url(#c1)" opacity="0.5" style="mix-blend-mode: lighten;">
<image preserveAspectRatio="none" x="1749" y="6093" width="1514" height="1323" xlink:href="img/57.png"/>
<g clip-path="url(#c1)">
<image preserveAspectRatio="none" x="1749" y="6423" width="1514" height="1321" xlink:href="img/58.png"/>
<image preserveAspectRatio="none" x="1749" y="6757" width="1514" height="1323" xlink:href="img/59.png"/>
</g>
</g>
<path d="M377,11027.6c-.1,-36.5,-30.7,-66.7,-67.5,-66.5c-37.3,.2,-66.9,30.4,-66.8,68.2c.1,36.3,30.4,66.2,67,66.1c37.6,-.2,67.3,-30.1,67.3,-67.8m-67.3,76.7c-41.6,0,-75.9,-34.2,-76,-75.9c0,-41.8,34.2,-76,76.1,-76c41.9,0,75.8,33.9,75.9,75.8c0,42,-34,76.1,-76,76.1Z" class="g1"/>
<path d="M305.4,11004.5c0,6.3,.2,12.6,-.1,18.9c-.1,1.8,-1,3.9,-2.2,5.2c-7.4,7.7,-15.1,15.2,-22.7,22.7c-1.6,1.7,-2.8,3.7,-1.2,5.7c1,1.3,3,2,4.7,2.3c.8,.2,2.1,-.9,2.9,-1.7c8.5,-8.4,17,-16.9,25.4,-25.5c1.1,-1.1,1.9,-3.1,1.9,-4.7c.2,-14.3,.1,-28.5,.1,-42.8c0,-3.4,-1.6,-5.3,-4.4,-5.4c-2.7,0,-4.4,1.9,-4.4,5.3c-.1,6.7,0,13.3,0,20Z" class="g3"/>
<path d="M377,11311.8c-.1,-36.5,-30.7,-66.7,-67.5,-66.5c-37.3,.1,-66.9,30.4,-66.8,68.2c.1,36.3,30.4,66.1,67,66c37.6,-.1,67.3,-30,67.3,-67.7m-67.3,76.7c-41.6,0,-75.9,-34.3,-76,-75.9c0,-41.9,34.2,-76.1,76.1,-76.1c41.9,.1,75.8,34,75.9,75.9c0,41.9,-34,76,-76,76.1Z" class="g1"/>
<path d="M306.8,11351.2c.3,-.3,.4,-.6,.6,-.8c4.9,-7.9,9.5,-15.9,13.7,-24.1c3.2,-6.3,6.3,-12.6,8.6,-19.2c.8,-2.3,1.5,-4.6,1.7,-7c.3,-2.3,.1,-4.7,-.4,-7c-1.6,-6.8,-5.4,-11.9,-11.3,-15.6c-3.1,-2,-6.6,-3.3,-10.4,-3.5c-2.6,-.2,-5.2,-.3,-7.7,.3c-6.3,1.6,-11.5,4.9,-15.2,10.4c-4,6,-5.2,12.6,-3.2,19.6c1.6,5.5,3.9,10.8,6.4,15.9c4.1,8.4,8.6,16.6,13.4,24.6c1.2,2.1,2.5,4.2,3.8,6.4Z" class="g4"/>
<path d="M306.8,11302.5c-3,0,-5.5,-2.4,-5.5,-5.5c0,-3,2.5,-5.4,5.5,-5.4c3,0,5.5,2.4,5.5,5.4c0,3.1,-2.5,5.5,-5.5,5.5m0,-14.4c-5,0,-9,4,-9,8.9c0,5,4,9,9,9c4.9,0,8.9,-4,8.9,-9c0,-4.9,-4,-8.9,-8.9,-8.9Z" class="g3"/>
<path d="M377,11582.2c-.1,-36.5,-30.7,-66.7,-67.5,-66.5c-37.3,.1,-66.9,30.4,-66.8,68.2c.1,36.3,30.4,66.1,67,66c37.6,-.1,67.3,-30,67.3,-67.7m-67.3,76.7c-41.6,0,-75.9,-34.2,-76,-75.9c0,-41.9,34.2,-76,76.1,-76c41.9,0,75.8,33.9,75.9,75.8c0,42,-34,76,-76,76.1Z" class="g1"/>
<path d="M302,11565.3v17.9h6.9c5.1,0,8.4,-.3,10.1,-1c1.7,-.7,3,-1.7,4,-3.1c1,-1.4,1.4,-3.1,1.4,-4.9c0,-2.3,-.6,-4.2,-2,-5.7c-1.3,-1.5,-3,-2.4,-5.1,-2.8c-1.5,-.3,-4.6,-.4,-9.2,-.4Zm-12.8,52.4v-63.1h20.5c7.7,0,12.8,.3,15.1,.9c3.6,1,6.7,3,9.1,6.2c2.5,3.2,3.7,7.3,3.7,12.3c0,3.9,-.7,7.1,-2.1,9.8c-1.4,2.6,-3.2,4.7,-5.4,6.2c-2.2,1.5,-4.4,2.5,-6.6,3c-3.1,.6,-7.5,.9,-13.2,.9H302v23.8Z" class="g3"/>
<path d="M1787.1,11027.6c0,-36.5,-30.7,-66.7,-67.5,-66.5c-37.3,.2,-66.9,30.4,-66.8,68.2c.2,36.3,30.4,66.2,67.1,66.1c37.6,-.2,67.3,-30.1,67.2,-67.8m-67.3,76.7c-41.6,0,-75.9,-34.2,-75.9,-75.9c-.1,-41.8,34.1,-76,76.1,-76c41.8,0,75.8,33.9,75.8,75.8c.1,42,-34,76.1,-76,76.1Z" class="g1"/>
<path d="M1698.5,11010.9h-12v-6h6c0,-.9,0,-1.8,0,-2.6c-.1,-4.7,3,-8.5,7.6,-9.2c1.5,-.3,3,-.2,4.5,-.2c9.3,0,18.5,0,27.8,0c3.6,0,7.2,0,10.8,0c4.4,0,8,2.8,9,7.2c.1,.6,.2,1.2,.2,1.9c0,15.8,0,31.6,0,47.4c0,2.1,0,4.1,0,6.2c0,5.1,-3.9,9.1,-9,9.2c-4.5,0,-9,0,-13.4,0c-5,0,-10,0,-15,0c-4.5,0,-9,0,-13.5,0c-5.1,-.1,-9,-4.1,-9,-9.3c0,-.8,0,-1.7,0,-2.7h6c0,1,0,2,0,3c0,1.4,.9,2.6,2.3,2.9c.2,.1,.4,.1,.7,.1c8.7,0,17.5,0,26.2,0c5,0,10,0,14.9,0c.3,0,.5,0,.8,0c1.7,0,3,-1.3,3,-3c0,-4.4,0,-8.7,0,-13.1v-32c0,-2.9,0,-5.8,0,-8.8c0,-1.7,-1.3,-3,-3,-3c-8.8,0,-17.5,0,-26.3,0c-5.2,0,-10.3,0,-15.5,0c-.9,0,-1.6,.3,-2.3,.9c-.6,.6,-.8,1.4,-.8,2.3c0,2.7,0,5.5,0,8.2c0,.2,0,.4,0,.6Z" class="g3"/>
<path d="M1716.4,11022.8c0,3.4,2.7,6,6,6.1c3.3,0,6,-2.7,6,-6c0,-3.4,-2.6,-6,-5.9,-6c-3.4,0,-6,2.6,-6.1,5.9m-6,24h-6c.3,-6.9,3.5,-12.1,9.4,-15.7c-2.8,-3.1,-4,-6.8,-3,-10.9c.6,-2.8,2.1,-5.1,4.4,-6.9c4.8,-3.6,11.3,-3.1,15.6,1c4.4,4.3,5.1,11.6,.3,16.9c2.8,1.6,5.1,3.7,6.7,6.5c1.7,2.8,2.6,5.8,2.6,9.1h-6c-.1,-3.9,-1.6,-7.1,-4.7,-9.5c-2.1,-1.7,-4.6,-2.5,-7.4,-2.5c-3.2,.1,-6.1,1.3,-8.4,3.6c-2.3,2.3,-3.4,5.1,-3.5,8.4Z" class="g3"/>
<path d="M1698.5,11034.9v11.9h-12v-6h6v-5.9Z" class="g3"/>
<path d="M1692.5,11022.9v-6h5.9v11.9h-11.9v-5.9Z" class="g3"/>
<g clip-path="url(#c1)">
<image preserveAspectRatio="none" x="1497" y="2151" width="32" height="40" xlink:href="img/60.png"/>
<image preserveAspectRatio="none" x="1497" y="2165" width="32" height="40" xlink:href="img/61.png"/>
<image preserveAspectRatio="none" x="1497" y="2180" width="32" height="40" xlink:href="img/62.png"/>
<image preserveAspectRatio="none" x="1497" y="2098" width="69" height="61" xlink:href="img/63.png"/>
<image preserveAspectRatio="none" x="1497" y="2113" width="69" height="60" xlink:href="img/64.png"/>
<image preserveAspectRatio="none" x="1497" y="2128" width="69" height="60" xlink:href="img/65.png"/>
<image preserveAspectRatio="none" x="1497" y="2535" width="32" height="39" xlink:href="img/66.png"/>
<image preserveAspectRatio="none" x="1497" y="2548" width="32" height="40" xlink:href="img/67.png"/>
<image preserveAspectRatio="none" x="1497" y="2564" width="32" height="39" xlink:href="img/68.png"/>
<image preserveAspectRatio="none" x="1497" y="2481" width="69" height="61" xlink:href="img/69.png"/>
<image preserveAspectRatio="none" x="1497" y="2496" width="69" height="60" xlink:href="img/70.png"/>
<image preserveAspectRatio="none" x="1497" y="2512" width="69" height="59" xlink:href="img/71.png"/>
<image preserveAspectRatio="none" x="1497" y="2854" width="32" height="40" xlink:href="img/72.png"/>
<image preserveAspectRatio="none" x="1497" y="2868" width="32" height="39" xlink:href="img/73.png"/>
<image preserveAspectRatio="none" x="1497" y="2883" width="32" height="40" xlink:href="img/74.png"/>
<image preserveAspectRatio="none" x="1497" y="2800" width="69" height="62" xlink:href="img/75.png"/>
<image preserveAspectRatio="none" x="1497" y="2816" width="69" height="59" xlink:href="img/76.png"/>
<image preserveAspectRatio="none" x="1497" y="2831" width="69" height="60" xlink:href="img/77.png"/>
</g>
<g clip-path="url(#c1)" opacity="0.3" style="mix-blend-mode: multiply;">
<image preserveAspectRatio="none" x="38" y="6710" width="1056" height="558" xlink:href="img/78.png"/>
</g>
<image clip-path="url(#c6)" preserveAspectRatio="none" x="63" y="6728" width="1001" height="503" xlink:href="img/79.jpg"/>
<g clip-path="url(#c1)" opacity="0.3" style="mix-blend-mode: multiply;">
<image preserveAspectRatio="none" x="912" y="6710" width="1057" height="556" xlink:href="img/80.png"/>
</g>
<image clip-path="url(#c7)" preserveAspectRatio="none" x="937" y="6729" width="1002" height="501" xlink:href="img/81.jpg"/>
<g clip-path="url(#c1)" opacity="0.3" style="mix-blend-mode: multiply;">
<image preserveAspectRatio="none" x="1781" y="6712" width="1059" height="554" xlink:href="img/82.png"/>
</g>
<image clip-path="url(#c8)" preserveAspectRatio="none" x="1806" y="6730" width="1003" height="499" xlink:href="img/83.jpg"/>
<g clip-path="url(#c1)" opacity="0.3" style="mix-blend-mode: multiply;">
<image preserveAspectRatio="none" x="471" y="7262" width="1058" height="554" xlink:href="img/84.png"/>
</g>
<image clip-path="url(#c9)" preserveAspectRatio="none" x="495" y="7280" width="1003" height="500" xlink:href="img/85.jpg"/>
<g clip-path="url(#c1)" opacity="0.3" style="mix-blend-mode: multiply;">
<image preserveAspectRatio="none" x="1285" y="7164" width="1251" height="654" xlink:href="img/86.png"/>
</g>
<image clip-path="url(#ca)" preserveAspectRatio="none" x="1309" y="7182" width="1196" height="599" xlink:href="img/87.jpg"/>
<g clip-path="url(#c1)" style="mix-blend-mode: multiply;">
<path d="M1557.5,7289.2h749.4v483.4H1505V7341.7c0,-29,23.5,-52.5,52.5,-52.5Z" class="g5"/>
</g>
<path d="M426.3,4508.5h2136m-2340.8,0h9.2" class="g6"/>
<path d="M247.9,4508.5H411.5" class="g7"/>
<path d="M420.1,4508.5h9.2" class="g6"/>
<path d="M449.2,4508.5c0,-12.7,-10.3,-22.9,-22.9,-22.9c-12.7,0,-23,10.2,-23,22.9c0,12.6,10.3,22.9,23,22.9c12.6,0,22.9,-10.3,22.9,-22.9Z" class="g1"/>
<path d="M1158.6,4508.5c0,-12.7,-10.3,-22.9,-22.9,-22.9c-12.7,0,-23,10.2,-23,22.9c0,12.6,10.3,22.9,23,22.9c12.6,0,22.9,-10.3,22.9,-22.9Z" class="g1"/>
<path d="M1868,4508.5c0,-12.7,-10.3,-22.9,-22.9,-22.9c-12.7,0,-22.9,10.2,-22.9,22.9c0,12.6,10.2,22.9,22.9,22.9c12.6,0,22.9,-10.3,22.9,-22.9Z" class="g1"/>
<path d="M2582.2,4508.5c0,-12.7,-10.3,-22.9,-22.9,-22.9c-12.7,0,-23,10.2,-23,22.9c0,12.6,10.3,22.9,23,22.9c12.6,0,22.9,-10.3,22.9,-22.9Z" class="g1"/>
<path d="M2562.3,4508.5h9.2" class="g6"/>
<path d="M2588.7,4508.5h163.6" class="g7"/>
<path d="M2760.9,4508.5h9.2" class="g6"/>
<g clip-path="url(#c1)" opacity="0.2" style="mix-blend-mode: multiply;">
<image x="12" y="3770" width="2910" height="41" xlink:href="shade/13.png"/>
</g>
<path fill-rule="evenodd" d="M1109.8,8574.3v10.4h4.3v8.8h9.8v11l-23.2,23.1h-21v-9.9h-7.3l-3.5,-3.6h-46.4v-9.3l16.2,-16h12l11.3,-11.5h29.3v7.8h10.1v-10.8Z" class="g8"/>
<path d="M294.3,8526.8H477.6v3H294.3v-3Z" class="g9"/>
<path d="M294.3,8526.2H477.6v3.9H294.3v-3.9Z" class="g9"/>
<path d="M1027.4,8526.8h183.2v3H1027.4v-3Z" class="g9"/>
<path d="M1027.4,8526.2h183.2v3.9H1027.4v-3.9Z" class="g9"/>
<path fill-rule="evenodd" d="M384.3,8448.4l18.9,-18.9h11.2l7.7,-7.8h45.7l3.5,3.5h13.8l3.3,-3.5h15.9l3.4,3.4h47l5.2,-5.2h7.6v3.2h13.8l-6.3,6.3H561l-6.3,6.2H542.8l-5.5,5.5v6h15.6v9h7.8l7,-7v-3.3l10.1,-10.2h14.6v4.6h8.9l9.8,9.6v3.4h-5.7l-4.1,3.9H587.7l-2.5,2.5l6.9,6.9l-2.9,3H560.5l-27.8,27.7v7.1h-4.3l-3.5,-3.5v-3.6H490.3l-7.2,7.1v9.4l5,5h9l5.7,-5.7h5.5v5.5l12.6,12.7l-1.9,2l1.8,1.8h9.8l2.6,2.6l7.1,-7.1h17l4.9,5h14.5l9.3,9.2h13.4l4.9,4.8v5.4l2.5,2.6h9.3l4.6,4.6h14.5l9.9,9.9l-11.3,11.3v3.4L612.4,8608v2.8l-14.9,14.9l.9,1l-9.2,9.3v2.3l-5.3,5.2l4.9,4.7l-5.2,5.2l3.9,3.8h-9.7l-10.7,-10.7v-10.8h-6.8v-10.3h-2.9V8599l-6.5,-6.5h-9l-12.2,-12.4v-3.2L518.8,8566v-5.6l11.5,-11.3v-3.2l-6.1,-6h-8.6l-11.9,-11.7H481.5v-5.5H467.8l-11.3,-11.2h4.1L450.1,8501v-2.5l-17.7,-17.8v-7.8l17.2,-17.4v-11l-2.3,-2.5H408.1l-6.3,6.4Z" class="g8"/>
<path fill-rule="evenodd" d="M615.6,8411.5l5.7,-5.7H663l2.4,2.6h9.9l2.5,-2.4h26.9l-4.2,4.3H689.4l-2.9,2.9l2.9,3l-10.7,10.7h-18l-2.3,2.5h-9.9l-12.4,12.2L624.5,8430v-4.5h6.6v-4.7l-9.2,-9.3Z" class="g8"/>
<path fill-rule="evenodd" d="M709.7,8447.1h-5.8v1.8l-3.4,3.2v2.8h6.2l3,-3.1Z" class="g8"/>
<path fill-rule="evenodd" d="M724.8,8458.4H710.5l3.8,3.8v6.9H703l-2.5,2.4v9.2h4.9l2.6,2.6l1.6,-1.7h5.5L727,8469.7h11.7l2.8,-2.8h4.6l12.3,12.4v2.9h3.4v-4.6h1.7v-2h-2.2l-9.4,-9.4v-.8h7.9l6.9,5.3h4.2l5.7,5.7v6.3h4.6l3,-3.1v-5.5h4.2l4.2,-4.1v-4.9h23.1v3h9.8v5.8H814.2l-2,-1.8H798.1l-5.9,6v3h19.5v13.5H790.3l-3.3,-3.4h-9.6l-4,4H761.2l-10.9,-10.9h-21l-3.1,3.1H705.3l-26.4,26.4v15.6l16.3,16.3h39.4v9.2l18.9,18.9v28l21.3,21.2h16.1l25.9,-26v-5.6l12.6,-12.5v-9.8l22.3,-22.3v-11.5H838.3L810,8507.1l8.4,-8.6l30.3,30.1l18.9,-18.9l-4.7,-4.8l-3.8,3.9l-12.3,-12.3l6.6,-6.7l12.5,12.6h29.7l7.6,7.6v9.6l26.4,26.4l6.3,-6.2v-8.4l22.9,-22.9H969v12.9h4.6l2.6,-2.6h3.4v20.5l26.4,26.4V8556l-19.3,-19.3v-8.4h5.7l14.2,14.2l8.7,-8.7v-5.6l-16.7,-16.7l5.5,-5.5l4.5,4.4l-2.2,2.3l3.2,3.2h13.8l9.3,-9.3v-7.3l-13.3,-13.4l5.4,-5.4l-6.5,-6.4l4.5,-4.3l18.1,18.2l6.9,-6.9l-6.1,-6.1v-5.2h9.9v-7.5l-15.2,-15.2h-8v-6.8h18.2l8.1,-8h4.9v10.8l11.7,11.9h9.4v-10.2h-7.4v-6.3h14.5l10.1,-10.1v-4.7h-62l-5,-5h-27.5l-3.1,-3.1H988.1l-5.2,5.2H968.4l-7.6,-6.6h-35v-3.6H893.4l-4.4,4.2h-7.8l-7,7.1l4.1,4.1l-6,6.1L861,8420.8H836.3l-4.9,4.9H814v7.2h-7.6l-5.4,-5.5v-4.6H783.2l-3.7,-3.7H755.4l-17.3,17.3v3.3h10.1l5.9,6l4.9,-5h6v-8l6.6,-6.7h4.5v5l-2.4,2.5v4.3h9.5v4.1h-8.1l-8,7.9H748.6v-4.6h-5v3.9l-6.1,6.2h-9.3Z" class="g8"/>
<path fill-rule="evenodd" d="M710.8,8440.5h6.7l-2.9,2.9h4.1l-2.1,2.1l5.2,5.4h1.7l1.3,1.2v2.9H711.2l3.1,-3.2v-4.1l-3.5,-3.7Z" class="g8"/>
<path fill-rule="evenodd" d="M913.6,8489.1v0c0,-.2,1.5,26.2,1.8,52.2c0,20.8,0,36.8,-1.1,54.8h27.5c-2.1,-26.7,-2.3,-43.5,-2.7,-68.1c-.2,-35.6,-.6,-58.5,.1,-67.6H896.3c-1,7.7,-7.9,31.6,-12.8,47.1c-6.3,19.4,-9.9,30.4,-18,52H865c-8.7,-21.3,-12.7,-32.4,-19.1,-52c-5.9,-18,-11.9,-38.4,-13,-47.1h-43c.4,8.8,.3,32.3,-.2,68.1c-.6,24.2,-.6,49.7,-2,67.6h27.1c-.6,-12.2,-1.2,-37.2,-1.4,-54.3c.2,-17.8,0,-35.5,1.5,-52.9c0,0,10.1,26.4,18,50.1c9.4,27.6,17.9,57.1,17.9,57.1h27.5l17.4,-56.3Z" class="g9"/>
<path fill-rule="evenodd" d="M739.5,8596.1c-1.4,-28.7,-1.8,-52.8,-1.8,-73.1c0,-16.1,.3,-48.4,1.2,-62.8H707.4c1.2,22.9,1.4,43.5,1.7,62.6c-.2,26.1,-.6,48.7,-1.7,73.3Z" class="g9"/>
<path fill-rule="evenodd" d="M561.1,8460.4c1.4,10.6,.8,20.4,1.4,47.4c.6,12.7,0,27.5,0,40.8c.1,27.2,.9,36.5,-.5,47.5h99.3v-22.7c-17.1,2.4,-26,2.9,-34.8,3.2H592.4v-41c0,0,24.6,-.1,31.2,0c9.1,.3,28.5,1.4,28.5,1.4v-20.6c-13.4,1.4,-17.4,1.7,-28.2,2H592.4v-38h34.5c17.1,0,25.2,.9,33.8,2.6v-22.8Z" class="g9"/>
<path d="M839.4,9764v72.4c-2.5,2,-4.7,4.2,-6.7,6.5V9764H752.5v66h-6.6v-66H665.6v66.1H659V9764H578.7v75.3l-20.4,68.3h18l9,-30.3h2.6l15,30.3h21.7l-14.5,-30.3H643l-9.1,30.3h19.6l9,-30.2h4.4v-.1h43.8l-8.7,30.2h19.8l8.4,-30.2h9l.2,30.2H756l19.1,-30.2h12.6l-6.5,30.2h19.5l6.4,-30.2h11.3c-.5,9.4,1.9,17.9,8.1,23.6c7.6,6.9,19.2,8.3,27.8,8.3c11.8,0,24,-1.7,36.3,-4.5l6.7,-27.4h22.3V9764Zm-183.3,69.9l-1.2,3.9l-10.6,35.5l-.5,1.2H608.7l-2.7,-5.8l37.8,-38.6H619.5L590,9861.9l9.5,-31.8H581.6v-63.2h74.5Zm20.7,30v0c-.7,.1,-1.5,.1,-2.3,.1c-1.1,0,-1.9,.1,-2.7,.1L667,9864l2.2,-8.1l1,-4.1l2.5,-9.5c1.1,0,2.2,0,3.3,0h3.7c6.3,0,10.3,.4,11.7,2.4c1.1,1.5,1,4.1,-.3,8.1c-2.3,6.9,-5.1,10.4,-14.3,11.1m54.2,10.6l7.9,-27.8l.3,27.8ZM743,9830H724.3l-12.8,44.5H691.7c10.1,-3.7,16.3,-10.8,18.1,-21.4c1.6,-8.2,.9,-13.6,-2.5,-17.7c-5,-6,-15.1,-5.5,-24,-5.5c-1.6,0,-14.8,.1,-14.8,.1v-63.1H743Zm45.2,44.5H777l17,-26.7Zm41.6,-43.3v15.5c-5.2,7.1,-8.4,15,-9.9,21.3c-.6,2.2,-1,4.3,-1.2,6.5h-11l9.4,-44.4l-31.5,-.1l-28.2,44.5h-2.1V9766.9h74.5Zm43,61.5c-4.3,.8,-8.5,1.3,-12.5,1.3c-10.8,0,-18.3,-5,-18.4,-16.7h34.7Zm44,-18.2H898l3.1,-12.4H863.5l-3.1,12.4H842.2V9872c.3,-1.4,.6,-2.9,.9,-4.5c3.3,-13.4,12.1,-26.6,27.3,-26.6c6,0,12,2.3,11.2,10.6H904c.8,-3.9,2.3,-10.5,-1.9,-16.6c-4.8,-6.6,-14.4,-9.2,-26.8,-9.2c-8.9,0,-21.9,1.4,-33.1,8.7v-67.5h74.6Z" class="ga"/>
<path d="M367.7,67.2v46c-1.6,1.2,-2.9,2.6,-4.2,4v-50H312.6v41.9h-4.2V67.2H257.5v41.9h-4.2V67.2H202.4V115l-13,43.3h11.5l5.7,-19.2h1.6l9.5,19.2h13.8l-9.2,-19.2h20.9l-5.8,19.2h12.5l5.7,-19.2h30.5l-5.5,19.1h12.6l5.3,-19.1h5.7l.1,19.1h10.6L327,139.1h7.9l-4.1,19.1h12.4l4,-19.1h7.2c-.3,5.9,1.2,11.3,5.2,14.9c4.7,4.4,12.1,5.3,17.6,5.3c7.4,0,15.2,-1.1,23,-2.8l4.3,-17.4h14.1V67.2ZM251.5,111.6l-.8,2.4L244,136.5l-.3,.8H221.5l-1.8,-3.7l24,-24.5H228.3l-18.8,20.2l6.1,-20.2H204.2V69h47.3Zm13.1,19v0c-.5,0,-.9,0,-1.4,0c-.7,0,-1.3,.1,-1.8,.1l-3,-.1l1.4,-5.1l.7,-2.6l1.5,-6c.7,0,1.4,0,2.1,0h2.3c4,0,6.6,.2,7.5,1.5c.7,.9,.6,2.6,-.2,5.2c-1.5,4.3,-3.3,6.5,-9.1,7m34.4,6.7l5,-17.7l.2,17.7Zm7.6,-28.2H294.7l-8.1,28.2H274.1c6.4,-2.4,10.3,-6.9,11.5,-13.6c1,-5.2,.5,-8.6,-1.6,-11.2c-3.2,-3.8,-9.6,-3.5,-15.3,-3.5c-1,0,-9.4,.1,-9.4,.1V69h47.3Zm28.7,28.2h-7.1l10.7,-16.9Zm26.4,-27.4l-.1,9.7c-3.3,4.6,-5.3,9.6,-6.3,13.6c-.3,1.4,-.6,2.7,-.7,4.1h-7l6,-28.2h-20l-17.9,28.2h-1.3V69h47.3Zm27.2,38.9c-2.7,.5,-5.4,.9,-7.9,.9c-6.9,0,-11.6,-3.2,-11.7,-10.6h22Zm27.9,-11.5H404.9l2,-7.9H383l-1.9,7.9H369.5v-1.6c.2,-.9,.4,-1.8,.6,-2.8c2.1,-8.5,7.7,-16.9,17.3,-16.9c3.8,0,7.6,1.4,7.1,6.7h14.2c.5,-2.4,1.5,-6.6,-1.2,-10.5c-3,-4.2,-9.1,-5.9,-17,-5.9c-5.6,0,-13.9,.9,-21,5.6V69h47.3Z" class="g1"/>
<g clip-path="url(#c1)">
<g opacity="0.45">
<path d="M2460.1,567.9c-65.9,0,-119.4,53.4,-119.4,119.4c0,65.9,53.5,119.4,119.4,119.4c66,0,119.5,-53.5,119.5,-119.4c0,-66,-53.5,-119.4,-119.5,-119.4m0,226.6c-59.2,0,-107.2,-48,-107.2,-107.2c0,-59.2,48,-107.2,107.2,-107.2c59.3,0,107.3,48,107.3,107.2c0,59.2,-48,107.2,-107.3,107.2Z" class="gb"/>
</g>
<g clip-path="url(#c1)">
<g opacity="0.43">
<path d="M2460.1,568c-65.8,0,-119.2,53.4,-119.2,119.3c0,65.9,53.4,119.2,119.2,119.2c65.9,0,119.3,-53.3,119.3,-119.2C2579.4,621.4,2526,568,2460.1,568m0,226.7c-59.3,0,-107.4,-48.1,-107.4,-107.4c0,-59.3,48.1,-107.4,107.4,-107.4c59.4,0,107.5,48.1,107.5,107.4c0,59.3,-48.1,107.4,-107.5,107.4Z" class="gc"/>
</g>
<g opacity="0.41">
<path d="M2460.1,568.2c-65.7,0,-119.1,53.3,-119.1,119.1c0,65.8,53.4,119.1,119.1,119.1c65.8,0,119.1,-53.3,119.1,-119.1c0,-65.8,-53.3,-119.1,-119.1,-119.1m0,226.7c-59.4,0,-107.6,-48.2,-107.6,-107.6c0,-59.4,48.2,-107.6,107.6,-107.6c59.5,0,107.7,48.2,107.7,107.6c0,59.4,-48.2,107.6,-107.7,107.6Z" class="gc"/>
</g>
<g opacity="0.4">
<path d="M2460.1,568.4c-65.6,0,-118.9,53.2,-118.9,118.9c0,65.7,53.3,118.9,118.9,118.9c65.7,0,119,-53.2,119,-118.9c0,-65.7,-53.3,-118.9,-119,-118.9m0,226.7c-59.5,0,-107.8,-48.3,-107.8,-107.8c0,-59.6,48.3,-107.8,107.8,-107.8c59.6,0,107.9,48.2,107.9,107.8c0,59.5,-48.3,107.8,-107.9,107.8Z" class="gd"/>
</g>
<g opacity="0.38">
<path d="M2460.1,568.5c-65.6,0,-118.7,53.2,-118.7,118.8c0,65.6,53.1,118.8,118.7,118.8c65.6,0,118.8,-53.2,118.8,-118.8c0,-65.6,-53.2,-118.8,-118.8,-118.8m0,226.8c-59.6,0,-108,-48.4,-108,-108c0,-59.7,48.4,-108,108,-108c59.7,0,108.1,48.3,108.1,108c0,59.6,-48.4,108,-108.1,108Z" class="gd"/>
</g>
<g opacity="0.36">
<path d="M2460.1,568.7c-65.5,0,-118.6,53.1,-118.6,118.6c0,65.5,53.1,118.6,118.6,118.6c65.5,0,118.6,-53.1,118.6,-118.6c0,-65.5,-53.1,-118.6,-118.6,-118.6m0,226.8c-59.7,0,-108.2,-48.4,-108.2,-108.2c0,-59.8,48.5,-108.2,108.2,-108.2c59.8,0,108.3,48.4,108.3,108.2c0,59.8,-48.5,108.2,-108.3,108.2Z" class="ge"/>
</g>
<g opacity="0.34">
<path d="M2460.1,568.8c-65.4,0,-118.4,53.1,-118.4,118.5c0,65.4,53,118.4,118.4,118.4c65.5,0,118.5,-53,118.5,-118.4c0,-65.4,-53,-118.5,-118.5,-118.5m0,226.9c-59.8,0,-108.4,-48.5,-108.4,-108.4c0,-59.9,48.6,-108.4,108.4,-108.4c59.9,0,108.4,48.5,108.4,108.4c0,59.9,-48.5,108.4,-108.4,108.4Z" class="ge"/>
</g>
<g opacity="0.32">
<path d="M2460.1,569c-65.3,0,-118.2,53,-118.2,118.3c0,65.3,52.9,118.3,118.2,118.3c65.4,0,118.3,-53,118.3,-118.3C2578.4,622,2525.5,569,2460.1,569m0,226.9c-59.9,0,-108.6,-48.6,-108.6,-108.6c0,-60,48.7,-108.6,108.6,-108.6c60,0,108.6,48.6,108.6,108.6c0,60,-48.6,108.6,-108.6,108.6Z" class="gf"/>
</g>
<g opacity="0.31">
<path d="M2460.1,569.2c-65.2,0,-118.1,52.9,-118.1,118.1c0,65.2,52.9,118.1,118.1,118.1c65.3,0,118.2,-52.9,118.2,-118.1c0,-65.2,-52.9,-118.1,-118.2,-118.1m0,226.9c-60,0,-108.8,-48.7,-108.8,-108.8c0,-60.1,48.8,-108.8,108.8,-108.8c60.1,0,108.8,48.7,108.8,108.8c0,60.1,-48.7,108.8,-108.8,108.8Z" class="gf"/>
</g>
<g opacity="0.29">
<path d="M2460.1,569.3c-65.1,0,-117.9,52.8,-117.9,118c0,65.1,52.8,118,117.9,118c65.2,0,118,-52.9,118,-118c0,-65.2,-52.8,-118,-118,-118m0,227c-60.2,0,-109,-48.8,-109,-109c0,-60.2,48.8,-109,109,-109c60.2,0,109,48.8,109,109c0,60.2,-48.8,109,-109,109Z" class="gg"/>
</g>
<g opacity="0.27">
<path d="M2460.1,569.5c-65,0,-117.8,52.7,-117.8,117.8c0,65,52.8,117.8,117.8,117.8c65.1,0,117.8,-52.8,117.8,-117.8c0,-65.1,-52.7,-117.8,-117.8,-117.8m0,227c-60.3,0,-109.2,-48.9,-109.2,-109.2c0,-60.3,48.9,-109.2,109.2,-109.2c60.3,0,109.2,48.9,109.2,109.2c0,60.3,-48.9,109.2,-109.2,109.2Z" class="gg"/>
</g>
<g opacity="0.25">
<path d="M2460.1,569.7c-64.9,0,-117.6,52.6,-117.6,117.6c0,65,52.7,117.6,117.6,117.6c65,0,117.7,-52.6,117.7,-117.6c0,-65,-52.7,-117.6,-117.7,-117.6m0,227c-60.4,0,-109.4,-49,-109.4,-109.4c0,-60.4,49,-109.4,109.4,-109.4c60.5,0,109.4,49,109.4,109.4c0,60.4,-48.9,109.4,-109.4,109.4Z" class="g0"/>
</g>
<g opacity="0.23">
<path d="M2460.1,569.8c-64.8,0,-117.4,52.6,-117.4,117.5c0,64.9,52.6,117.5,117.4,117.5c64.9,0,117.5,-52.6,117.5,-117.5c0,-64.9,-52.6,-117.5,-117.5,-117.5m0,227.1c-60.5,0,-109.5,-49.1,-109.5,-109.6c0,-60.5,49,-109.6,109.5,-109.6c60.6,0,109.6,49.1,109.6,109.6c0,60.5,-49,109.6,-109.6,109.6Z" class="g0"/>
</g>
<g opacity="0.22">
<path d="M2460.1,570c-64.7,0,-117.3,52.5,-117.3,117.3c0,64.8,52.6,117.3,117.3,117.3c64.8,0,117.4,-52.5,117.4,-117.3C2577.5,622.5,2524.9,570,2460.1,570m0,227.1c-60.6,0,-109.7,-49.2,-109.7,-109.8c0,-60.6,49.1,-109.8,109.7,-109.8c60.7,0,109.8,49.2,109.8,109.8c0,60.6,-49.1,109.8,-109.8,109.8Z" class="gh"/>
</g>
<g opacity="0.2">
<path d="M2460.1,570.1c-64.7,0,-117.1,52.5,-117.1,117.2c0,64.7,52.4,117.1,117.1,117.1c64.7,0,117.2,-52.4,117.2,-117.1c0,-64.7,-52.5,-117.2,-117.2,-117.2m0,227.2c-60.7,0,-109.9,-49.3,-109.9,-110c0,-60.8,49.2,-110,109.9,-110c60.8,0,110,49.2,110,110c0,60.7,-49.2,110,-110,110Z" class="gh"/>
</g>
<g opacity="0.18">
<path d="M2460.1,570.3c-64.6,0,-116.9,52.4,-116.9,117c0,64.6,52.3,117,116.9,117c64.7,0,117,-52.4,117,-117c0,-64.6,-52.3,-117,-117,-117m0,227.2C2399.3,797.5,2350,748.1,2350,687.3c0,-60.9,49.3,-110.2,110.1,-110.2c60.9,0,110.2,49.3,110.2,110.2c0,60.8,-49.3,110.2,-110.2,110.2Z" class="gi"/>
</g>
<g opacity="0.16">
<path d="M2460.1,570.5c-64.5,0,-116.8,52.3,-116.8,116.8c0,64.5,52.3,116.8,116.8,116.8c64.6,0,116.9,-52.3,116.9,-116.8c0,-64.5,-52.3,-116.8,-116.9,-116.8m0,227.2c-60.9,0,-110.3,-49.4,-110.3,-110.4c0,-61,49.4,-110.4,110.3,-110.4c61,0,110.4,49.4,110.4,110.4c0,61,-49.4,110.4,-110.4,110.4Z" class="gi"/>
</g>
<g opacity="0.14">
<path d="M2460.1,570.6c-64.4,0,-116.6,52.3,-116.6,116.7c0,64.4,52.2,116.7,116.6,116.7c64.5,0,116.7,-52.3,116.7,-116.7c0,-64.4,-52.2,-116.7,-116.7,-116.7m0,227.3c-61,0,-110.5,-49.5,-110.5,-110.6c0,-61.1,49.5,-110.6,110.5,-110.6c61.1,0,110.6,49.5,110.6,110.6c0,61.1,-49.5,110.6,-110.6,110.6Z" class="gj"/>
</g>
<g opacity="0.13">
<path d="M2460.1,570.8c-64.3,0,-116.5,52.1,-116.5,116.5c0,64.3,52.2,116.5,116.5,116.5c64.4,0,116.5,-52.2,116.5,-116.5c0,-64.4,-52.1,-116.5,-116.5,-116.5m0,227.3c-61.1,0,-110.7,-49.6,-110.7,-110.8c0,-61.2,49.6,-110.8,110.7,-110.8c61.2,0,110.8,49.6,110.8,110.8c0,61.2,-49.6,110.8,-110.8,110.8Z" class="gj"/>
</g>
<g opacity="0.11">
<path d="M2460.1,570.9c-64.2,0,-116.3,52.1,-116.3,116.4c0,64.2,52.1,116.3,116.3,116.3c64.3,0,116.4,-52.1,116.4,-116.3c0,-64.3,-52.1,-116.4,-116.4,-116.4m0,227.4c-61.2,0,-110.9,-49.7,-110.9,-111c0,-61.3,49.7,-111,110.9,-111c61.3,0,111,49.7,111,111c0,61.3,-49.7,111,-111,111Z" class="gk"/>
</g>
<g opacity="0.09">
<path d="M2460.1,571.1c-64.1,0,-116.1,52,-116.1,116.2c0,64.2,52,116.2,116.1,116.2c64.2,0,116.2,-52,116.2,-116.2c0,-64.2,-52,-116.2,-116.2,-116.2m0,227.4C2398.7,798.5,2349,748.7,2349,687.3c0,-61.4,49.7,-111.2,111.1,-111.2c61.4,0,111.2,49.8,111.2,111.2c0,61.4,-49.8,111.2,-111.2,111.2Z" class="gk"/>
</g>
<g opacity="0.07">
<path d="M2460.1,571.3c-64,0,-116,51.9,-116,116c0,64.1,52,116,116,116c64.1,0,116.1,-51.9,116.1,-116c0,-64.1,-52,-116,-116.1,-116m0,227.4c-61.5,0,-111.3,-49.9,-111.3,-111.4c0,-61.5,49.8,-111.4,111.3,-111.4c61.5,0,111.4,49.9,111.4,111.4c0,61.5,-49.9,111.4,-111.4,111.4Z" class="gl"/>
</g>
<g opacity="0.05">
<path d="M2460.1,571.4c-63.9,0,-115.8,51.9,-115.8,115.9c0,64,51.9,115.8,115.8,115.8c64,0,115.9,-51.8,115.9,-115.8c0,-64,-51.9,-115.9,-115.9,-115.9m0,227.4c-61.6,0,-111.5,-49.9,-111.5,-111.5c0,-61.6,49.9,-111.6,111.5,-111.6c61.7,0,111.6,50,111.6,111.6c0,61.6,-49.9,111.5,-111.6,111.5Z" class="gl"/>
</g>
<g opacity="0.04">
<path d="M2460.1,571.6c-63.9,0,-115.7,51.8,-115.7,115.7c0,63.9,51.8,115.7,115.7,115.7c63.9,0,115.7,-51.8,115.7,-115.7c0,-63.9,-51.8,-115.7,-115.7,-115.7m0,227.4c-61.7,0,-111.7,-50,-111.7,-111.7c0,-61.7,50,-111.8,111.7,-111.8c61.8,0,111.8,50.1,111.8,111.8c0,61.7,-50,111.7,-111.8,111.7Z" class="gm"/>
</g>
<g opacity="0.02">
<path d="M2460.1,571.8c-63.8,0,-115.5,51.7,-115.5,115.5c0,63.8,51.7,115.5,115.5,115.5c63.8,0,115.6,-51.7,115.6,-115.5c0,-63.8,-51.8,-115.5,-115.6,-115.5m0,227.4c-61.8,0,-111.9,-50.1,-111.9,-111.9c0,-61.8,50.1,-112,111.9,-112c61.9,0,112,50.2,112,112c0,61.8,-50.1,111.9,-112,111.9Z" class="gm"/>
</g>
<g opacity="0">
<path d="M2460.1,571.9c-63.7,0,-115.3,51.7,-115.3,115.4c0,63.7,51.6,115.4,115.3,115.4c63.8,0,115.4,-51.7,115.4,-115.4c0,-63.7,-51.6,-115.4,-115.4,-115.4m0,227.5C2398.2,799.4,2348,749.2,2348,687.3c0,-61.9,50.2,-112.2,112.1,-112.2c62,0,112.2,50.3,112.2,112.2c0,61.9,-50.2,112.1,-112.2,112.1Z" class="g1"/>
</g>
</g>
<g opacity="0.92">
<g opacity="0.52">
<path d="M2461.2,549.2h-2.1v-9h2.1v9Z" class="g1"/>
</g>
<g clip-path="url(#c1)">
<g opacity="0.42">
<path d="M2446.8,549.8l-2.1,.2l-1,-8.9l2.1,-.2Z" class="g1"/>
</g>
<g opacity="0.32">
<path d="M2432.5,552l-2.1,.4l-1.9,-8.8l2.1,-.4Z" class="g1"/>
</g>
<g opacity="0.22">
<path d="M2418.5,555.6l-2,.6l-2.8,-8.5l2,-.6Z" class="g1"/>
</g>
<g opacity="0.11">
<path d="M2404.9,560.7l-1.9,.8l-3.6,-8.1l1.9,-.9Z" class="g1"/>
</g>
<g opacity="0.02">
<path d="M2392,567.1l-1.8,1.1l-4.5,-7.8l1.8,-1Z" class="g1"/>
</g>
<g opacity="0">
<path d="M2379.8,574.9l-1.7,1.3l-5.3,-7.3l1.7,-1.2Z" class="g1"/>
</g>
<g opacity="0">
<path d="M2368.5,583.9l-1.6,1.4l-6,-6.6l1.6,-1.4Z" class="g1"/>
</g>
<g opacity="0">
<path d="M2358.2,594.1l-1.4,1.5l-6.7,-5.9l1.4,-1.6Z" class="g1"/>
</g>
<g opacity="0">
<path d="M2349,605.2l-1.2,1.8l-7.3,-5.3l1.3,-1.7Z" class="g1"/>
</g>
<g opacity="0">
<path d="M2341,617.3l-1,1.8l-7.8,-4.4l1.1,-1.9Z" class="g1"/>
</g>
<g opacity="0">
<path d="M2334.4,630.1l-.9,2l-8.2,-3.7l.9,-1.9Z" class="g1"/>
</g>
<g opacity="0">
<path d="M2329.1,643.6l-.7,2l-8.5,-2.8l.7,-2Z" class="g1"/>
</g>
<g opacity="0">
<path d="M2325.3,657.5l-.5,2.1l-8.7,-1.9l.4,-2Z" class="g1"/>
</g>
<g opacity="0">
<path d="M2322.9,671.8l-.2,2.1l-8.9,-.9l.2,-2.1Z" class="g1"/>
</g>
<g opacity="0">
<path d="M2322,688.3h-8.9v-2.1h8.9v2.1Z" class="g1"/>
</g>
<g opacity="0">
<path d="M2322.7,700.7l.2,2.1l-8.9,.9l-.2,-2.1Z" class="g1"/>
</g>
<g opacity="0">
<path d="M2324.8,715l.5,2l-8.8,1.9l-.4,-2.1Z" class="g1"/>
</g>
<g opacity="0">
<path d="M2328.4,729l.7,2l-8.5,2.7l-.7,-2Z" class="g1"/>
</g>
<g opacity="0">
<path d="M2333.5,742.5l.9,1.9l-8.2,3.7l-.9,-1.9Z" class="g1"/>
</g>
<g opacity="0">
<path d="M2340,755.4l1,1.9l-7.7,4.4l-1.1,-1.8Z" class="g1"/>
</g>
<g opacity="0">
<path d="M2347.8,767.6l1.2,1.7l-7.2,5.3l-1.3,-1.7Z" class="g1"/>
</g>
<g opacity="0">
<path d="M2356.8,778.9l1.4,1.6l-6.7,6l-1.4,-1.6Z" class="g1"/>
</g>
<g opacity="0">
<path d="M2366.9,789.2l1.6,1.4l-6,6.7l-1.6,-1.4Z" class="g1"/>
</g>
<g opacity="0">
<path d="M2378.1,798.4l1.7,1.3l-5.3,7.2l-1.7,-1.2Z" class="g1"/>
</g>
<g opacity="0">
<path d="M2390.2,806.4l1.8,1l-4.5,7.8l-1.8,-1.1Z" class="g1"/>
</g>
<g opacity="0">
<path d="M2403,813l1.9,.9l-3.6,8.2l-1.9,-.9Z" class="g1"/>
</g>
<g opacity="0">
<path d="M2416.5,818.3l2,.7l-2.8,8.5l-2,-.6Z" class="g1"/>
</g>
<g opacity="0">
<path d="M2430.4,822.2l2.1,.4l-1.9,8.8l-2.1,-.5Z" class="g1"/>
</g>
<g opacity="0">
<path d="M2444.7,824.6l2.1,.2l-1,8.9l-2.1,-.2Z" class="g1"/>
</g>
<g opacity="0">
<path d="M2459.1,825.4h2.1v9h-2.1v-9Z" class="g1"/>
</g>
<g opacity="0">
<path d="M2473.5,824.8l2.1,-.3l1,9l-2.1,.2Z" class="g1"/>
</g>
<g opacity="0">
<path d="M2487.8,822.6l2.1,-.4l1.9,8.7l-2.1,.5Z" class="g1"/>
</g>
<g opacity="0">
<path d="M2501.8,819l2,-.7l2.8,8.5l-2,.7Z" class="g1"/>
</g>
<g opacity="0">
<path d="M2515.4,813.9l1.9,-.9l3.6,8.2l-1.9,.9Z" class="g1"/>
</g>
<g opacity="0">
<path d="M2528.3,807.4l1.8,-1l4.5,7.7l-1.8,1.1Z" class="g1"/>
</g>
<g opacity="0">
<path d="M2540.5,799.7l1.7,-1.3l5.2,7.3l-1.7,1.2Z" class="g1"/>
</g>
<g opacity="0">
<path d="M2551.8,790.6l1.5,-1.4l6,6.7l-1.5,1.4Z" class="g1"/>
</g>
<g opacity="0">
<path d="M2562.1,780.5l1.4,-1.6l6.7,6l-1.5,1.6Z" class="g1"/>
</g>
<g opacity="0">
<path d="M2571.3,769.3l1.2,-1.7l7.3,5.3l-1.3,1.7Z" class="g1"/>
</g>
<g opacity="0">
<path d="M2579.2,757.3l1.1,-1.9l7.7,4.5l-1,1.8Z" class="g1"/>
</g>
<g opacity="0">
<path d="M2585.9,744.4l.9,-1.9l8.1,3.7l-.8,1.9Z" class="g1"/>
</g>
<g opacity="0">
<path d="M2591.2,731l.6,-2l8.6,2.7l-.7,2Z" class="g1"/>
</g>
<g opacity="0">
<path d="M2595,717l.5,-2l8.7,1.8l-.4,2.1Z" class="g1"/>
</g>
<g opacity="0">
<path d="M2597.4,702.8l.2,-2.1l8.9,.9l-.2,2.1Z" class="g1"/>
</g>
<g opacity="0">
<path d="M2598.3,686.2h8.9v2.1h-8.9v-2.1Z" class="g1"/>
</g>
<g opacity="0">
<path d="M2597.6,673.9l-.2,-2.1l8.9,-.9l.2,2.1Z" class="g1"/>
</g>
<g opacity="0">
<path d="M2595.5,659.6l-.5,-2.1l8.8,-1.8l.4,2Z" class="g1"/>
</g>
<g opacity="0">
<path d="M2591.8,645.6l-.6,-2l8.5,-2.8l.7,2Z" class="g1"/>
</g>
<g opacity="0">
<path d="M2586.8,632.1l-.9,-2l8.2,-3.6l.8,1.9Z" class="g1"/>
</g>
<g opacity="0">
<path d="M2580.3,619.1l-1.1,-1.8l7.8,-4.5l1,1.9Z" class="g1"/>
</g>
<g opacity="0.02">
<path d="M2572.5,607l-1.2,-1.8l7.2,-5.2l1.3,1.7Z" class="g1"/>
</g>
<g opacity="0.11">
<path d="M2563.5,595.6l-1.4,-1.5l6.6,-6l1.5,1.6Z" class="g1"/>
</g>
<g opacity="0.22">
<path d="M2553.3,585.3l-1.5,-1.4l6,-6.6l1.5,1.4Z" class="g1"/>
</g>
<g opacity="0.32">
<path d="M2542.2,576.2l-1.7,-1.3l5.2,-7.2l1.7,1.2Z" class="g1"/>
</g>
<g opacity="0.42">
<path d="M2530.1,568.2l-1.8,-1.1l4.5,-7.7l1.8,1Z" class="g1"/>
</g>
<g opacity="0.52">
<path d="M2517.3,561.5l-1.9,-.8l3.6,-8.2l1.9,.9Z" class="g1"/>
</g>
<g opacity="0.52">
<path d="M2503.8,556.2l-2,-.6l2.8,-8.5l2,.6Z" class="g1"/>
</g>
<g opacity="0.52">
<path d="M2489.9,552.4l-2.1,-.4l1.9,-8.8l2.1,.4Z" class="g1"/>
</g>
<g opacity="0.52">
<path d="M2475.6,550l-2.1,-.2l1,-8.9l2.1,.2Z" class="g1"/>
</g>
</g>
</g>
</g>
<path d="M2573.3,687.3c0,62.6,-50.7,113.4,-113.4,113.4c-62.6,0,-113.3,-50.8,-113.3,-113.4c0,-62.6,50.7,-113.4,113.3,-113.4c62.7,0,113.4,50.8,113.4,113.4Z" class="gn"/>
<image x="2461" y="572" width="58" height="19" xlink:href="shade/14.png"/>
<g clip-path="url(#c1)" style="mix-blend-mode: screen;">
<image x="2506" y="577" width="28" height="28" xlink:href="shade/15.png"/>
</g>
<g clip-path="url(#c1)" style="mix-blend-mode: screen;">
<image x="2511" y="582" width="18" height="18" xlink:href="shade/16.png"/>
</g>
<g clip-path="url(#c1)" style="mix-blend-mode: screen;">
<image x="2513" y="584" width="13" height="13" xlink:href="shade/17.png"/>
</g>
<g clip-path="url(#c1)" style="mix-blend-mode: multiply;">
<image x="2514" y="585" width="12" height="11" xlink:href="shade/18.png"/>
</g>
<g clip-path="url(#c1)">
<g opacity="0.45">
<path d="M2120,567.9c-66,0,-119.5,53.4,-119.5,119.4c0,65.9,53.5,119.4,119.5,119.4c65.9,0,119.4,-53.5,119.4,-119.4c0,-66,-53.5,-119.4,-119.4,-119.4m0,226.6c-59.3,0,-107.3,-48,-107.3,-107.2c0,-59.2,48,-107.2,107.3,-107.2c59.2,0,107.2,48,107.2,107.2c0,59.2,-48,107.2,-107.2,107.2Z" class="gb"/>
</g>
<g clip-path="url(#c1)">
<g opacity="0.43">
<path d="M2120,568c-65.9,0,-119.3,53.4,-119.3,119.3c0,65.9,53.4,119.2,119.3,119.2c65.8,0,119.2,-53.3,119.2,-119.2C2239.2,621.4,2185.8,568,2120,568m0,226.7c-59.4,0,-107.5,-48.1,-107.5,-107.4c0,-59.3,48.1,-107.4,107.5,-107.4c59.3,0,107.4,48.1,107.4,107.4c0,59.3,-48.1,107.4,-107.4,107.4Z" class="gc"/>
</g>
<g opacity="0.41">
<path d="M2120,568.2c-65.8,0,-119.1,53.3,-119.1,119.1c0,65.8,53.3,119.1,119.1,119.1c65.7,0,119.1,-53.3,119.1,-119.1c0,-65.8,-53.4,-119.1,-119.1,-119.1m0,226.7c-59.5,0,-107.7,-48.2,-107.7,-107.6c0,-59.4,48.2,-107.6,107.7,-107.6c59.4,0,107.6,48.2,107.6,107.6c0,59.4,-48.2,107.6,-107.6,107.6Z" class="gc"/>
</g>
<g opacity="0.4">
<path d="M2120,568.4c-65.7,0,-119,53.2,-119,118.9c0,65.7,53.3,118.9,119,118.9c65.6,0,118.9,-53.2,118.9,-118.9c0,-65.7,-53.3,-118.9,-118.9,-118.9m0,226.7c-59.6,0,-107.9,-48.3,-107.9,-107.8c0,-59.6,48.3,-107.8,107.9,-107.8c59.5,0,107.8,48.2,107.8,107.8c0,59.5,-48.3,107.8,-107.8,107.8Z" class="gd"/>
</g>
<g opacity="0.38">
<path d="M2120,568.5c-65.6,0,-118.8,53.2,-118.8,118.8c0,65.6,53.2,118.8,118.8,118.8c65.6,0,118.7,-53.2,118.7,-118.8c0,-65.6,-53.1,-118.8,-118.7,-118.8m0,226.8c-59.7,0,-108.1,-48.4,-108.1,-108c0,-59.7,48.4,-108,108.1,-108c59.6,0,108,48.3,108,108c0,59.6,-48.4,108,-108,108Z" class="gd"/>
</g>
<g opacity="0.36">
<path d="M2120,568.7c-65.5,0,-118.7,53.1,-118.7,118.6c0,65.5,53.2,118.6,118.7,118.6c65.5,0,118.6,-53.1,118.6,-118.6c0,-65.5,-53.1,-118.6,-118.6,-118.6m0,226.8c-59.8,0,-108.3,-48.4,-108.3,-108.2c0,-59.8,48.5,-108.2,108.3,-108.2c59.7,0,108.2,48.4,108.2,108.2c0,59.8,-48.5,108.2,-108.2,108.2Z" class="ge"/>
</g>
<g opacity="0.34">
<path d="M2120,568.8c-65.5,0,-118.5,53.1,-118.5,118.5c0,65.4,53,118.4,118.5,118.4c65.4,0,118.4,-53,118.4,-118.4c0,-65.4,-53,-118.5,-118.4,-118.5m0,226.9c-59.9,0,-108.5,-48.5,-108.5,-108.4c0,-59.9,48.6,-108.4,108.5,-108.4c59.8,0,108.4,48.5,108.4,108.4c0,59.9,-48.6,108.4,-108.4,108.4Z" class="ge"/>
</g>
<g opacity="0.32">
<path d="M2120,569c-65.4,0,-118.3,53,-118.3,118.3c0,65.3,52.9,118.3,118.3,118.3c65.3,0,118.2,-53,118.2,-118.3C2238.2,622,2185.3,569,2120,569m0,226.9c-60,0,-108.6,-48.6,-108.6,-108.6c0,-60,48.6,-108.6,108.6,-108.6c59.9,0,108.6,48.6,108.6,108.6c0,60,-48.7,108.6,-108.6,108.6Z" class="gf"/>
</g>
<g opacity="0.31">
<path d="M2120,569.2c-65.3,0,-118.2,52.9,-118.2,118.1c0,65.2,52.9,118.1,118.2,118.1c65.2,0,118.1,-52.9,118.1,-118.1c0,-65.2,-52.9,-118.1,-118.1,-118.1m0,226.9c-60.1,0,-108.8,-48.7,-108.8,-108.8c0,-60.1,48.7,-108.8,108.8,-108.8c60,0,108.8,48.7,108.8,108.8c0,60.1,-48.8,108.8,-108.8,108.8Z" class="gf"/>
</g>
<g opacity="0.29">
<path d="M2120,569.3c-65.2,0,-118,52.8,-118,118c0,65.1,52.8,118,118,118c65.1,0,117.9,-52.9,117.9,-118c0,-65.2,-52.8,-118,-117.9,-118m0,227c-60.2,0,-109,-48.8,-109,-109c0,-60.2,48.8,-109,109,-109c60.2,0,109,48.8,109,109c0,60.2,-48.8,109,-109,109Z" class="gg"/>
</g>
<g opacity="0.27">
<path d="M2120,569.5c-65.1,0,-117.8,52.7,-117.8,117.8c0,65,52.7,117.8,117.8,117.8c65,0,117.8,-52.8,117.8,-117.8C2237.8,622.2,2185,569.5,2120,569.5m0,227c-60.4,0,-109.2,-48.9,-109.2,-109.2c0,-60.3,48.8,-109.2,109.2,-109.2c60.3,0,109.2,48.9,109.2,109.2c0,60.3,-48.9,109.2,-109.2,109.2Z" class="gg"/>
</g>
<g opacity="0.25">
<path d="M2120,569.7c-65,0,-117.7,52.6,-117.7,117.6c0,65,52.7,117.6,117.7,117.6c64.9,0,117.6,-52.6,117.6,-117.6c0,-65,-52.7,-117.6,-117.6,-117.6m0,227c-60.5,0,-109.4,-49,-109.4,-109.4c0,-60.4,48.9,-109.4,109.4,-109.4c60.4,0,109.4,49,109.4,109.4c0,60.4,-49,109.4,-109.4,109.4Z" class="g0"/>
</g>
<g opacity="0.23">
<path d="M2120,569.8c-64.9,0,-117.5,52.6,-117.5,117.5c0,64.9,52.6,117.5,117.5,117.5c64.8,0,117.4,-52.6,117.4,-117.5c0,-64.9,-52.6,-117.5,-117.4,-117.5m0,227.1c-60.6,0,-109.6,-49.1,-109.6,-109.6c0,-60.5,49,-109.6,109.6,-109.6c60.5,0,109.5,49.1,109.5,109.6c0,60.5,-49,109.6,-109.5,109.6Z" class="g0"/>
</g>
<g opacity="0.22">
<path d="M2120,570c-64.8,0,-117.4,52.5,-117.4,117.3c0,64.8,52.6,117.3,117.4,117.3c64.7,0,117.3,-52.5,117.3,-117.3C2237.3,622.5,2184.7,570,2120,570m0,227.1c-60.7,0,-109.8,-49.2,-109.8,-109.8c0,-60.6,49.1,-109.8,109.8,-109.8c60.6,0,109.7,49.2,109.7,109.8c0,60.6,-49.1,109.8,-109.7,109.8Z" class="gh"/>
</g>
<g opacity="0.2">
<path d="M2120,570.1c-64.7,0,-117.2,52.5,-117.2,117.2c0,64.7,52.5,117.1,117.2,117.1c64.7,0,117.1,-52.4,117.1,-117.1c0,-64.7,-52.4,-117.2,-117.1,-117.2m0,227.2c-60.8,0,-110,-49.3,-110,-110c0,-60.8,49.2,-110,110,-110c60.7,0,109.9,49.2,109.9,110c0,60.7,-49.2,110,-109.9,110Z" class="gh"/>
</g>
<g opacity="0.18">
<path d="M2120,570.3c-64.7,0,-117,52.4,-117,117c0,64.6,52.3,117,117,117c64.6,0,116.9,-52.4,116.9,-117c0,-64.6,-52.3,-117,-116.9,-117m0,227.2c-60.9,0,-110.2,-49.4,-110.2,-110.2c0,-60.9,49.3,-110.2,110.2,-110.2c60.8,0,110.1,49.3,110.1,110.2c0,60.8,-49.3,110.2,-110.1,110.2Z" class="gi"/>
</g>
<g opacity="0.16">
<path d="M2120,570.5c-64.6,0,-116.9,52.3,-116.9,116.8c0,64.5,52.3,116.8,116.9,116.8c64.5,0,116.8,-52.3,116.8,-116.8c0,-64.5,-52.3,-116.8,-116.8,-116.8m0,227.2c-61,0,-110.4,-49.4,-110.4,-110.4c0,-61,49.4,-110.4,110.4,-110.4c60.9,0,110.3,49.4,110.3,110.4c0,61,-49.4,110.4,-110.3,110.4Z" class="gi"/>
</g>
<g opacity="0.14">
<path d="M2120,570.6c-64.5,0,-116.7,52.3,-116.7,116.7c0,64.4,52.2,116.7,116.7,116.7c64.4,0,116.6,-52.3,116.6,-116.7c0,-64.4,-52.2,-116.7,-116.6,-116.7m0,227.3c-61.1,0,-110.6,-49.5,-110.6,-110.6c0,-61.1,49.5,-110.6,110.6,-110.6c61,0,110.5,49.5,110.5,110.6c0,61.1,-49.5,110.6,-110.5,110.6Z" class="gj"/>
</g>
<g opacity="0.13">
<path d="M2120,570.8c-64.4,0,-116.5,52.1,-116.5,116.5c0,64.3,52.1,116.5,116.5,116.5c64.3,0,116.5,-52.2,116.5,-116.5c0,-64.4,-52.2,-116.5,-116.5,-116.5m0,227.3c-61.2,0,-110.8,-49.6,-110.8,-110.8c0,-61.2,49.6,-110.8,110.8,-110.8c61.1,0,110.7,49.6,110.7,110.8c0,61.2,-49.6,110.8,-110.7,110.8Z" class="gj"/>
</g>
<g opacity="0.11">
<path d="M2120,570.9c-64.3,0,-116.4,52.1,-116.4,116.4c0,64.2,52.1,116.3,116.4,116.3c64.2,0,116.3,-52.1,116.3,-116.3C2236.3,623,2184.2,570.9,2120,570.9m0,227.4c-61.3,0,-111,-49.7,-111,-111c0,-61.3,49.7,-111,111,-111c61.2,0,110.9,49.7,110.9,111c0,61.3,-49.7,111,-110.9,111Z" class="gk"/>
</g>
<g opacity="0.09">
<path d="M2120,571.1c-64.2,0,-116.2,52,-116.2,116.2c0,64.2,52,116.2,116.2,116.2c64.1,0,116.1,-52,116.1,-116.2c0,-64.2,-52,-116.2,-116.1,-116.2m0,227.4c-61.4,0,-111.2,-49.8,-111.2,-111.2c0,-61.4,49.8,-111.2,111.2,-111.2c61.4,0,111.1,49.8,111.1,111.2c0,61.4,-49.7,111.2,-111.1,111.2Z" class="gk"/>
</g>
<g opacity="0.07">
<path d="M2120,571.3c-64.1,0,-116.1,51.9,-116.1,116c0,64.1,52,116,116.1,116c64,0,116,-51.9,116,-116c0,-64.1,-52,-116,-116,-116m0,227.4c-61.5,0,-111.4,-49.9,-111.4,-111.4c0,-61.5,49.9,-111.4,111.4,-111.4c61.5,0,111.3,49.9,111.3,111.4c0,61.5,-49.8,111.4,-111.3,111.4Z" class="gl"/>
</g>
<g opacity="0.05">
<path d="M2120,571.4c-64,0,-115.9,51.9,-115.9,115.9c0,64,51.9,115.8,115.9,115.8c63.9,0,115.8,-51.8,115.8,-115.8c0,-64,-51.9,-115.9,-115.8,-115.9m0,227.4c-61.7,0,-111.6,-49.9,-111.6,-111.5c0,-61.6,49.9,-111.6,111.6,-111.6c61.6,0,111.5,50,111.5,111.6c0,61.6,-49.9,111.5,-111.5,111.5Z" class="gl"/>
</g>
<g opacity="0.04">
<path d="M2120,571.6c-63.9,0,-115.7,51.8,-115.7,115.7c0,63.9,51.8,115.7,115.7,115.7c63.9,0,115.7,-51.8,115.7,-115.7c0,-63.9,-51.8,-115.7,-115.7,-115.7m0,227.4c-61.8,0,-111.8,-50,-111.8,-111.7c0,-61.7,50,-111.8,111.8,-111.8c61.7,0,111.7,50.1,111.7,111.8c0,61.7,-50,111.7,-111.7,111.7Z" class="gm"/>
</g>
<g opacity="0.02">
<path d="M2120,571.8c-63.9,0,-115.6,51.7,-115.6,115.5c0,63.8,51.7,115.5,115.6,115.5c63.8,0,115.5,-51.7,115.5,-115.5c0,-63.8,-51.7,-115.5,-115.5,-115.5m0,227.4c-61.9,0,-112,-50.1,-112,-111.9c0,-61.8,50.1,-112,112,-112c61.8,0,111.9,50.2,111.9,112c0,61.8,-50.1,111.9,-111.9,111.9Z" class="gm"/>
</g>
<g opacity="0">
<path d="M2120,571.9c-63.8,0,-115.4,51.7,-115.4,115.4c0,63.7,51.6,115.4,115.4,115.4c63.7,0,115.3,-51.7,115.3,-115.4c0,-63.7,-51.6,-115.4,-115.3,-115.4m0,227.5c-62,0,-112.2,-50.2,-112.2,-112.1c0,-61.9,50.2,-112.2,112.2,-112.2c61.9,0,112.1,50.3,112.1,112.2c0,61.9,-50.2,112.1,-112.1,112.1Z" class="g1"/>
</g>
</g>
</g>
<path d="M2233.1,687.3c0,62.6,-50.7,113.4,-113.3,113.4c-62.7,0,-113.4,-50.8,-113.4,-113.4c0,-62.6,50.7,-113.4,113.4,-113.4c62.6,0,113.3,50.8,113.3,113.4Z" class="gn"/>
<g clip-path="url(#c1)">
<g opacity="0.52">
<path d="M2119.5,549.2h-2.1v-9h2.1v9Z" class="g1"/>
</g>
<g opacity="0.42">
<path d="M2105.1,549.8l-2.1,.2l-1,-8.9l2.1,-.2Z" class="g1"/>
</g>
<g opacity="0.32">
<path d="M2090.8,552l-2.1,.4l-1.9,-8.8l2.1,-.4Z" class="g1"/>
</g>
<g opacity="0.22">
<path d="M2076.8,555.6l-2,.6l-2.8,-8.5l2,-.6Z" class="g1"/>
</g>
<g opacity="0.11">
<path d="M2063.2,560.7l-1.9,.8l-3.6,-8.1l1.9,-.9Z" class="g1"/>
</g>
<g opacity="0.02">
<path d="M2050.3,567.1l-1.8,1.1l-4.5,-7.8l1.8,-1Z" class="g1"/>
</g>
<g opacity="0">
<path d="M2038.1,574.9l-1.7,1.3l-5.2,-7.3l1.7,-1.2Z" class="g1"/>
</g>
<g opacity="0">
<path d="M2026.8,583.9l-1.5,1.4l-6,-6.6l1.5,-1.4Z" class="g1"/>
</g>
<g opacity="0">
<path d="M2016.5,594.1l-1.4,1.5l-6.6,-5.9l1.4,-1.6Z" class="g1"/>
</g>
<g opacity="0">
<path d="M2007.3,605.2l-1.2,1.8l-7.3,-5.3l1.3,-1.7Z" class="g1"/>
</g>
<g opacity="0">
<path d="M1999.4,617.3l-1.1,1.8l-7.7,-4.4l1,-1.9Z" class="g1"/>
</g>
<g opacity="0">
<path d="M1992.7,630.1l-.9,2l-8.1,-3.7l.8,-1.9Z" class="g1"/>
</g>
<g opacity="0">
<path d="M1987.4,643.6l-.6,2l-8.6,-2.8l.7,-2Z" class="g1"/>
</g>
<g opacity="0">
<path d="M1983.6,657.5l-.5,2.1l-8.7,-1.9l.4,-2Z" class="g1"/>
</g>
<g opacity="0">
<path d="M1981.2,671.8l-.2,2.1l-8.9,-.9l.2,-2.1Z" class="g1"/>
</g>
<g opacity="0.02">
<path d="M1980.3,688.3h-8.9v-2.1h8.9v2.1Z" class="g1"/>
</g>
<g opacity="0.11">
<path d="M1981,700.7l.2,2.1l-8.9,.9l-.2,-2.1Z" class="g1"/>
</g>
<g opacity="0.22">
<path d="M1983.1,715l.5,2l-8.8,1.9l-.4,-2.1Z" class="g1"/>
</g>
<g opacity="0.32">
<path d="M1986.8,729l.6,2l-8.5,2.7l-.6,-2Z" class="g1"/>
</g>
<g opacity="0.42">
<path d="M1991.8,742.5l.9,1.9l-8.2,3.7l-.8,-1.9Z" class="g1"/>
</g>
<g opacity="0.52">
<path d="M1998.3,755.4l1.1,1.9l-7.8,4.4l-1,-1.8Z" class="g1"/>
</g>
<g opacity="0.52">
<path d="M2006.1,767.6l1.2,1.7l-7.2,5.3l-1.3,-1.7Z" class="g1"/>
</g>
<g opacity="0.52">
<path d="M2015.1,778.9l1.4,1.6l-6.6,6l-1.4,-1.6Z" class="g1"/>
</g>
<g opacity="0.52">
<path d="M2025.3,789.2l1.5,1.4l-6,6.7l-1.5,-1.4Z" class="g1"/>
</g>
<g opacity="0.52">
<path d="M2036.4,798.4l1.7,1.3l-5.2,7.2l-1.7,-1.2Z" class="g1"/>
</g>
<g opacity="0.52">
<path d="M2048.5,806.4l1.8,1l-4.5,7.8l-1.8,-1.1Z" class="g1"/>
</g>
<g opacity="0.52">
<path d="M2061.3,813l1.9,.9l-3.6,8.2l-1.9,-.9Z" class="g1"/>
</g>
<g opacity="0.52">
<path d="M2074.8,818.3l2,.7l-2.8,8.5l-2,-.6Z" class="g1"/>
</g>
<g opacity="0.52">
<path d="M2088.7,822.2l2.1,.4l-1.9,8.8l-2.1,-.5Z" class="g1"/>
</g>
<g opacity="0.52">
<path d="M2103,824.6l2.1,.2l-1,8.9l-2.1,-.2Z" class="g1"/>
</g>
<g opacity="0.52">
<path d="M2117.4,825.4h2.1v9h-2.1v-9Z" class="g1"/>
</g>
<g opacity="0.52">
<path d="M2131.9,824.8l2,-.3l1,9l-2.1,.2Z" class="g1"/>
</g>
<g opacity="0.52">
<path d="M2146.1,822.6l2.1,-.4l1.9,8.7l-2.1,.5Z" class="g1"/>
</g>
<g opacity="0.52">
<path d="M2160.1,819l2,-.7l2.8,8.5l-2,.7Z" class="g1"/>
</g>
<g opacity="0.52">
<path d="M2173.7,813.9l1.9,-.9l3.7,8.2l-2,.9Z" class="g1"/>
</g>
<g opacity="0.52">
<path d="M2186.6,807.4l1.8,-1l4.5,7.7l-1.8,1.1Z" class="g1"/>
</g>
<g opacity="0.52">
<path d="M2198.8,799.7l1.7,-1.3l5.3,7.3l-1.7,1.2Z" class="g1"/>
</g>
<g opacity="0.52">
<path d="M2210.1,790.6l1.6,-1.4l6,6.7l-1.6,1.4Z" class="g1"/>
</g>
<g opacity="0.52">
<path d="M2220.4,780.5l1.4,-1.6l6.7,6l-1.4,1.6Z" class="g1"/>
</g>
<g opacity="0.52">
<path d="M2229.6,769.3l1.2,-1.7l7.3,5.3l-1.3,1.7Z" class="g1"/>
</g>
<g opacity="0.52">
<path d="M2237.6,757.3l1,-1.9l7.8,4.5l-1.1,1.8Z" class="g1"/>
</g>
<g opacity="0.52">
<path d="M2244.2,744.4l.9,-1.9l8.2,3.7l-.9,1.9Z" class="g1"/>
</g>
<g opacity="0.52">
<path d="M2249.5,731l.7,-2l8.5,2.7l-.7,2Z" class="g1"/>
</g>
<g opacity="0.52">
<path d="M2253.4,717l.4,-2l8.8,1.8l-.5,2.1Z" class="g1"/>
</g>
<g opacity="0.52">
<path d="M2255.7,702.8l.2,-2.1l9,.9l-.3,2.1Z" class="g1"/>
</g>
<g opacity="0.52">
<path d="M2256.6,686.2h8.9v2.1h-8.9v-2.1Z" class="g1"/>
</g>
<g opacity="0.52">
<path d="M2255.9,673.9l-.2,-2.1l8.9,-.9l.3,2.1Z" class="g1"/>
</g>
<g opacity="0.52">
<path d="M2253.8,659.6l-.4,-2.1l8.7,-1.8l.5,2Z" class="g1"/>
</g>
<g opacity="0.52">
<path d="M2250.2,645.6l-.7,-2l8.5,-2.8l.7,2Z" class="g1"/>
</g>
<g opacity="0.52">
<path d="M2245.1,632.1l-.9,-2l8.2,-3.6l.9,1.9Z" class="g1"/>
</g>
<g opacity="0.52">
<path d="M2238.6,619.1l-1,-1.8l7.7,-4.5l1.1,1.9Z" class="g1"/>
</g>
<g opacity="0.52">
<path d="M2230.8,607l-1.2,-1.8l7.2,-5.2l1.3,1.7Z" class="g1"/>
</g>
<g opacity="0.52">
<path d="M2221.8,595.6l-1.4,-1.5l6.7,-6l1.4,1.6Z" class="g1"/>
</g>
<g opacity="0.52">
<path d="M2211.7,585.3l-1.6,-1.4l6,-6.6l1.6,1.4Z" class="g1"/>
</g>
<g opacity="0.52">
<path d="M2200.5,576.2l-1.7,-1.3l5.3,-7.2l1.7,1.2Z" class="g1"/>
</g>
<g opacity="0.52">
<path d="M2188.4,568.2l-1.8,-1.1l4.5,-7.7l1.8,1Z" class="g1"/>
</g>
<g opacity="0.52">
<path d="M2175.6,561.5l-1.9,-.8l3.6,-8.2l2,.9Z" class="g1"/>
</g>
<g opacity="0.52">
<path d="M2162.1,556.2l-2,-.6l2.8,-8.5l2,.6Z" class="g1"/>
</g>
<g opacity="0.52">
<path d="M2148.2,552.4l-2.1,-.4l1.9,-8.8l2.1,.4Z" class="g1"/>
</g>
<g opacity="0.52">
<path d="M2133.9,550l-2,-.2l.9,-8.9l2.1,.2Z" class="g1"/>
</g>
</g>
<image x="2020" y="572" width="215" height="230" xlink:href="shade/19.png"/>
<g clip-path="url(#c1)" style="mix-blend-mode: screen;">
<image x="2008" y="731" width="27" height="27" xlink:href="shade/20.png"/>
</g>
<g clip-path="url(#c1)" style="mix-blend-mode: screen;">
<image x="2012" y="735" width="19" height="19" xlink:href="shade/21.png"/>
</g>
<g clip-path="url(#c1)" style="mix-blend-mode: screen;">
<image x="2015" y="738" width="13" height="13" xlink:href="shade/22.png"/>
</g>
<g clip-path="url(#c1)" style="mix-blend-mode: multiply;">
<image x="2016" y="739" width="11" height="11" xlink:href="shade/23.png"/>
</g>
<g clip-path="url(#c1)">
<g opacity="0.45">
<path d="M1776.7,567.9c-65.9,0,-119.4,53.4,-119.4,119.4c0,65.9,53.5,119.4,119.4,119.4c66,0,119.4,-53.5,119.4,-119.4c0,-66,-53.4,-119.4,-119.4,-119.4m0,226.6c-59.2,0,-107.2,-48,-107.2,-107.2c0,-59.2,48,-107.2,107.2,-107.2c59.2,0,107.2,48,107.2,107.2c0,59.2,-48,107.2,-107.2,107.2Z" class="gb"/>
</g>
<g clip-path="url(#c1)">
<g opacity="0.43">
<path d="M1776.7,568c-65.9,0,-119.2,53.4,-119.2,119.3c0,65.9,53.3,119.2,119.2,119.2c65.9,0,119.3,-53.3,119.3,-119.2C1896,621.4,1842.6,568,1776.7,568m0,226.7c-59.3,0,-107.4,-48.1,-107.4,-107.4c0,-59.3,48.1,-107.4,107.4,-107.4c59.3,0,107.4,48.1,107.4,107.4c0,59.3,-48.1,107.4,-107.4,107.4Z" class="gc"/>
</g>
<g opacity="0.41">
<path d="M1776.7,568.2c-65.8,0,-119.1,53.3,-119.1,119.1c0,65.8,53.3,119.1,119.1,119.1c65.8,0,119.1,-53.3,119.1,-119.1c0,-65.8,-53.3,-119.1,-119.1,-119.1m0,226.7c-59.4,0,-107.6,-48.2,-107.6,-107.6c0,-59.4,48.2,-107.6,107.6,-107.6c59.4,0,107.6,48.2,107.6,107.6c0,59.4,-48.2,107.6,-107.6,107.6Z" class="gc"/>
</g>
<g opacity="0.4">
<path d="M1776.7,568.4c-65.7,0,-118.9,53.2,-118.9,118.9c0,65.7,53.2,118.9,118.9,118.9c65.7,0,118.9,-53.2,118.9,-118.9c0,-65.7,-53.2,-118.9,-118.9,-118.9m0,226.7c-59.5,0,-107.8,-48.3,-107.8,-107.8c0,-59.6,48.3,-107.8,107.8,-107.8c59.6,0,107.8,48.2,107.8,107.8c0,59.5,-48.2,107.8,-107.8,107.8Z" class="gd"/>
</g>
<g opacity="0.38">
<path d="M1776.7,568.5c-65.6,0,-118.8,53.2,-118.8,118.8c0,65.6,53.2,118.8,118.8,118.8c65.6,0,118.8,-53.2,118.8,-118.8c0,-65.6,-53.2,-118.8,-118.8,-118.8m0,226.8c-59.6,0,-108,-48.4,-108,-108c0,-59.7,48.4,-108,108,-108c59.7,0,108,48.3,108,108c0,59.6,-48.3,108,-108,108Z" class="gd"/>
</g>
<g opacity="0.36">
<path d="M1776.7,568.7c-65.5,0,-118.6,53.1,-118.6,118.6c0,65.5,53.1,118.6,118.6,118.6c65.5,0,118.6,-53.1,118.6,-118.6c0,-65.5,-53.1,-118.6,-118.6,-118.6m0,226.8c-59.8,0,-108.2,-48.4,-108.2,-108.2c0,-59.8,48.4,-108.2,108.2,-108.2c59.8,0,108.2,48.4,108.2,108.2c0,59.8,-48.4,108.2,-108.2,108.2Z" class="ge"/>
</g>
<g opacity="0.34">
<path d="M1776.7,568.8c-65.4,0,-118.4,53.1,-118.4,118.5c0,65.4,53,118.4,118.4,118.4c65.4,0,118.5,-53,118.5,-118.4c0,-65.4,-53.1,-118.5,-118.5,-118.5m0,226.9c-59.9,0,-108.4,-48.5,-108.4,-108.4c0,-59.9,48.5,-108.4,108.4,-108.4c59.9,0,108.4,48.5,108.4,108.4c0,59.9,-48.5,108.4,-108.4,108.4Z" class="ge"/>
</g>
<g opacity="0.32">
<path d="M1776.7,569c-65.3,0,-118.3,53,-118.3,118.3c0,65.3,53,118.3,118.3,118.3c65.3,0,118.3,-53,118.3,-118.3C1895,622,1842,569,1776.7,569m0,226.9c-60,0,-108.6,-48.6,-108.6,-108.6c0,-60,48.6,-108.6,108.6,-108.6c60,0,108.6,48.6,108.6,108.6c0,60,-48.6,108.6,-108.6,108.6Z" class="gf"/>
</g>
<g opacity="0.31">
<path d="M1776.7,569.2c-65.2,0,-118.1,52.9,-118.1,118.1c0,65.2,52.9,118.1,118.1,118.1c65.2,0,118.1,-52.9,118.1,-118.1c0,-65.2,-52.9,-118.1,-118.1,-118.1m0,226.9c-60.1,0,-108.8,-48.7,-108.8,-108.8c0,-60.1,48.7,-108.8,108.8,-108.8c60.1,0,108.8,48.7,108.8,108.8c0,60.1,-48.7,108.8,-108.8,108.8Z" class="gf"/>
</g>
<g opacity="0.29">
<path d="M1776.7,569.3c-65.1,0,-118,52.8,-118,118c0,65.1,52.9,118,118,118c65.2,0,118,-52.9,118,-118c0,-65.2,-52.8,-118,-118,-118m0,227c-60.2,0,-109,-48.8,-109,-109c0,-60.2,48.8,-109,109,-109c60.2,0,109,48.8,109,109c0,60.2,-48.8,109,-109,109Z" class="gg"/>
</g>
<g opacity="0.27">
<path d="M1776.7,569.5c-65.1,0,-117.8,52.7,-117.8,117.8c0,65,52.7,117.8,117.8,117.8c65.1,0,117.8,-52.8,117.8,-117.8c0,-65.1,-52.7,-117.8,-117.8,-117.8m0,227c-60.3,0,-109.2,-48.9,-109.2,-109.2c0,-60.3,48.9,-109.2,109.2,-109.2c60.3,0,109.2,48.9,109.2,109.2c0,60.3,-48.9,109.2,-109.2,109.2Z" class="gg"/>
</g>
<g opacity="0.25">
<path d="M1776.7,569.7c-65,0,-117.6,52.6,-117.6,117.6c0,65,52.6,117.6,117.6,117.6c65,0,117.6,-52.6,117.6,-117.6c0,-65,-52.6,-117.6,-117.6,-117.6m0,227c-60.4,0,-109.4,-49,-109.4,-109.4c0,-60.4,49,-109.4,109.4,-109.4c60.4,0,109.4,49,109.4,109.4c0,60.4,-49,109.4,-109.4,109.4Z" class="g0"/>
</g>
<g opacity="0.23">
<path d="M1776.7,569.8c-64.9,0,-117.5,52.6,-117.5,117.5c0,64.9,52.6,117.5,117.5,117.5c64.9,0,117.5,-52.6,117.5,-117.5c0,-64.9,-52.6,-117.5,-117.5,-117.5m0,227.1c-60.5,0,-109.6,-49.1,-109.6,-109.6c0,-60.5,49.1,-109.6,109.6,-109.6c60.5,0,109.6,49.1,109.6,109.6c0,60.5,-49.1,109.6,-109.6,109.6Z" class="g0"/>
</g>
<g opacity="0.22">
<path d="M1776.7,570c-64.8,0,-117.3,52.5,-117.3,117.3c0,64.8,52.5,117.3,117.3,117.3c64.8,0,117.3,-52.5,117.3,-117.3C1894,622.5,1841.5,570,1776.7,570m0,227.1c-60.6,0,-109.8,-49.2,-109.8,-109.8c0,-60.6,49.2,-109.8,109.8,-109.8c60.6,0,109.8,49.2,109.8,109.8c0,60.6,-49.2,109.8,-109.8,109.8Z" class="gh"/>
</g>
<g opacity="0.2">
<path d="M1776.7,570.1c-64.7,0,-117.1,52.5,-117.1,117.2c0,64.7,52.4,117.1,117.1,117.1c64.7,0,117.2,-52.4,117.2,-117.1c0,-64.7,-52.5,-117.2,-117.2,-117.2m0,227.2c-60.7,0,-110,-49.3,-110,-110c0,-60.8,49.3,-110,110,-110c60.8,0,110,49.2,110,110c0,60.7,-49.2,110,-110,110Z" class="gh"/>
</g>
<g opacity="0.18">
<path d="M1776.7,570.3c-64.6,0,-117,52.4,-117,117c0,64.6,52.4,117,117,117c64.6,0,117,-52.4,117,-117c0,-64.6,-52.4,-117,-117,-117m0,227.2c-60.8,0,-110.2,-49.4,-110.2,-110.2c0,-60.9,49.4,-110.2,110.2,-110.2c60.9,0,110.2,49.3,110.2,110.2c0,60.8,-49.3,110.2,-110.2,110.2Z" class="gi"/>
</g>
<g opacity="0.16">
<path d="M1776.7,570.5c-64.5,0,-116.8,52.3,-116.8,116.8c0,64.5,52.3,116.8,116.8,116.8c64.5,0,116.8,-52.3,116.8,-116.8c0,-64.5,-52.3,-116.8,-116.8,-116.8m0,227.2c-61,0,-110.4,-49.4,-110.4,-110.4c0,-61,49.4,-110.4,110.4,-110.4c61,0,110.4,49.4,110.4,110.4c0,61,-49.4,110.4,-110.4,110.4Z" class="gi"/>
</g>
<g opacity="0.14">
<path d="M1776.7,570.6c-64.4,0,-116.7,52.3,-116.7,116.7c0,64.4,52.3,116.7,116.7,116.7c64.4,0,116.7,-52.3,116.7,-116.7c0,-64.4,-52.3,-116.7,-116.7,-116.7m0,227.3c-61.1,0,-110.6,-49.5,-110.6,-110.6c0,-61.1,49.5,-110.6,110.6,-110.6c61.1,0,110.6,49.5,110.6,110.6c0,61.1,-49.5,110.6,-110.6,110.6Z" class="gj"/>
</g>
<g opacity="0.13">
<path d="M1776.7,570.8c-64.3,0,-116.5,52.1,-116.5,116.5c0,64.3,52.2,116.5,116.5,116.5c64.4,0,116.5,-52.2,116.5,-116.5c0,-64.4,-52.1,-116.5,-116.5,-116.5m0,227.3c-61.2,0,-110.8,-49.6,-110.8,-110.8c0,-61.2,49.6,-110.8,110.8,-110.8c61.2,0,110.8,49.6,110.8,110.8c0,61.2,-49.6,110.8,-110.8,110.8Z" class="gj"/>
</g>
<g opacity="0.11">
<path d="M1776.7,570.9c-64.2,0,-116.3,52.1,-116.3,116.4c0,64.2,52.1,116.3,116.3,116.3c64.3,0,116.4,-52.1,116.4,-116.3C1893.1,623,1841,570.9,1776.7,570.9m0,227.4c-61.3,0,-111,-49.7,-111,-111c0,-61.3,49.7,-111,111,-111c61.3,0,111,49.7,111,111c0,61.3,-49.7,111,-111,111Z" class="gk"/>
</g>
<g opacity="0.09">
<path d="M1776.7,571.1c-64.2,0,-116.2,52,-116.2,116.2c0,64.2,52,116.2,116.2,116.2c64.2,0,116.2,-52,116.2,-116.2c0,-64.2,-52,-116.2,-116.2,-116.2m0,227.4c-61.4,0,-111.2,-49.8,-111.2,-111.2c0,-61.4,49.8,-111.2,111.2,-111.2c61.4,0,111.2,49.8,111.2,111.2c0,61.4,-49.8,111.2,-111.2,111.2Z" class="gk"/>
</g>
<g opacity="0.07">
<path d="M1776.7,571.3c-64.1,0,-116,51.9,-116,116c0,64.1,51.9,116,116,116c64.1,0,116,-51.9,116,-116c0,-64.1,-51.9,-116,-116,-116m0,227.4c-61.5,0,-111.4,-49.9,-111.4,-111.4c0,-61.5,49.9,-111.4,111.4,-111.4c61.5,0,111.4,49.9,111.4,111.4c0,61.5,-49.9,111.4,-111.4,111.4Z" class="gl"/>
</g>
<g opacity="0.05">
<path d="M1776.7,571.4c-64,0,-115.8,51.9,-115.8,115.9c0,64,51.8,115.8,115.8,115.8c64,0,115.9,-51.8,115.9,-115.8c0,-64,-51.9,-115.9,-115.9,-115.9m0,227.4c-61.6,0,-111.6,-49.9,-111.6,-111.5c0,-61.6,50,-111.6,111.6,-111.6c61.6,0,111.6,50,111.6,111.6c0,61.6,-50,111.5,-111.6,111.5Z" class="gl"/>
</g>
<g opacity="0.04">
<path d="M1776.7,571.6c-63.9,0,-115.7,51.8,-115.7,115.7c0,63.9,51.8,115.7,115.7,115.7c63.9,0,115.7,-51.8,115.7,-115.7c0,-63.9,-51.8,-115.7,-115.7,-115.7m0,227.4C1715,799,1665,749,1665,687.3c0,-61.7,50,-111.8,111.7,-111.8c61.7,0,111.8,50.1,111.8,111.8c0,61.7,-50.1,111.7,-111.8,111.7Z" class="gm"/>
</g>
<g opacity="0.02">
<path d="M1776.7,571.8c-63.8,0,-115.5,51.7,-115.5,115.5c0,63.8,51.7,115.5,115.5,115.5c63.8,0,115.5,-51.7,115.5,-115.5c0,-63.8,-51.7,-115.5,-115.5,-115.5m0,227.4c-61.8,0,-111.9,-50.1,-111.9,-111.9c0,-61.8,50.1,-112,111.9,-112c61.8,0,112,50.2,112,112c0,61.8,-50.2,111.9,-112,111.9Z" class="gm"/>
</g>
<g opacity="0">
<path d="M1776.7,571.9c-63.7,0,-115.4,51.7,-115.4,115.4c0,63.7,51.7,115.4,115.4,115.4c63.7,0,115.4,-51.7,115.4,-115.4c0,-63.7,-51.7,-115.4,-115.4,-115.4m0,227.5c-61.9,0,-112.1,-50.2,-112.1,-112.1c0,-61.9,50.2,-112.2,112.1,-112.2c61.9,0,112.2,50.3,112.2,112.2c0,61.9,-50.3,112.1,-112.2,112.1Z" class="g1"/>
</g>
</g>
<g opacity="0.52">
<path d="M1777.8,549.2h-2.1v-9h2.1v9Z" class="g1"/>
</g>
<g opacity="0.42">
<path d="M1763.3,549.8l-2.1,.2l-.9,-8.9l2.1,-.2Z" class="g1"/>
</g>
<g opacity="0.32">
<path d="M1749,552l-2,.4l-1.9,-8.8l2.1,-.4Z" class="g1"/>
</g>
<g opacity="0.22">
<path d="M1735,555.6l-2,.6l-2.7,-8.5l2,-.6Z" class="g1"/>
</g>
<g opacity="0.11">
<path d="M1721.5,560.7l-1.9,.8l-3.7,-8.1l1.9,-.9Z" class="g1"/>
</g>
<g opacity="0.02">
<path d="M1708.6,567.1l-1.9,1.1l-4.4,-7.8l1.8,-1Z" class="g1"/>
</g>
<g opacity="0">
<path d="M1696.4,574.9l-1.7,1.3l-5.3,-7.3l1.7,-1.2Z" class="g1"/>
</g>
<g opacity="0">
<path d="M1685.1,583.9l-1.6,1.4l-6,-6.6l1.6,-1.4Z" class="g1"/>
</g>
<g opacity="0">
<path d="M1674.8,594.1l-1.4,1.5l-6.7,-5.9l1.4,-1.6Z" class="g1"/>
</g>
<g opacity="0">
<path d="M1665.6,605.2l-1.3,1.8l-7.2,-5.3l1.2,-1.7Z" class="g1"/>
</g>
<g opacity="0">
<path d="M1657.6,617.3l-1,1.8l-7.8,-4.4l1.1,-1.9Z" class="g1"/>
</g>
<g opacity="0">
<path d="M1651,630.1l-.9,2l-8.2,-3.7l.9,-1.9Z" class="g1"/>
</g>
<g opacity="0">
<path d="M1645.7,643.6l-.7,2l-8.5,-2.8l.6,-2Z" class="g1"/>
</g>
<g opacity="0">
<path d="M1641.8,657.5l-.4,2.1l-8.8,-1.9l.5,-2Z" class="g1"/>
</g>
<g opacity="0">
<path d="M1639.4,671.8l-.2,2.1l-8.9,-.9l.2,-2.1Z" class="g1"/>
</g>
<g opacity="0">
<path d="M1638.6,688.3h-9v-2.1h9v2.1Z" class="g1"/>
</g>
<g opacity="0">
<path d="M1639.2,700.7l.2,2.1l-8.9,.9l-.2,-2.1Z" class="g1"/>
</g>
<g opacity="0">
<path d="M1641.4,715l.4,2l-8.7,1.9l-.5,-2.1Z" class="g1"/>
</g>
<g opacity="0">
<path d="M1645,729l.7,2l-8.6,2.7l-.6,-2Z" class="g1"/>
</g>
<g opacity="0">
<path d="M1650.1,742.5l.9,1.9l-8.2,3.7l-.9,-1.9Z" class="g1"/>
</g>
<g opacity="0">
<path d="M1656.6,755.4l1,1.9l-7.7,4.4l-1.1,-1.8Z" class="g1"/>
</g>
<g opacity="0">
<path d="M1664.3,767.6l1.3,1.7l-7.3,5.3l-1.2,-1.7Z" class="g1"/>
</g>
<g opacity="0">
<path d="M1673.4,778.9l1.4,1.6l-6.7,6l-1.4,-1.6Z" class="g1"/>
</g>
<g opacity="0">
<path d="M1683.5,789.2l1.6,1.4l-6,6.7l-1.6,-1.4Z" class="g1"/>
</g>
<g opacity="0">
<path d="M1694.7,798.4l1.7,1.3l-5.3,7.2l-1.7,-1.2Z" class="g1"/>
</g>
<g opacity="0">
<path d="M1706.7,806.4l1.9,1l-4.5,7.8l-1.8,-1.1Z" class="g1"/>
</g>
<g opacity="0">
<path d="M1719.6,813l1.9,.9l-3.7,8.2l-1.9,-.9Z" class="g1"/>
</g>
<g opacity="0">
<path d="M1733,818.3l2,.7l-2.7,8.5l-2,-.6Z" class="g1"/>
</g>
<g opacity="0">
<path d="M1747,822.2l2,.4l-1.8,8.8l-2.1,-.5Z" class="g1"/>
</g>
<g opacity="0">
<path d="M1761.2,824.6l2.1,.2l-.9,8.9l-2.1,-.2Z" class="g1"/>
</g>
<g opacity="0">
<path d="M1775.7,825.4h2.1v9h-2.1v-9Z" class="g1"/>
</g>
<g opacity="0">
<path d="M1790.1,824.8l2.1,-.3l.9,9l-2.1,.2Z" class="g1"/>
</g>
<g opacity="0">
<path d="M1804.4,822.6l2.1,-.4l1.8,8.7l-2,.5Z" class="g1"/>
</g>
<g opacity="0">
<path d="M1818.4,819l2,-.7l2.8,8.5l-2,.7Z" class="g1"/>
</g>
<g opacity="0">
<path d="M1831.9,813.9l2,-.9l3.6,8.2l-1.9,.9Z" class="g1"/>
</g>
<g opacity="0">
<path d="M1844.9,807.4l1.8,-1l4.5,7.7l-1.9,1.1Z" class="g1"/>
</g>
<g opacity="0">
<path d="M1857,799.7l1.8,-1.3l5.2,7.3l-1.7,1.2Z" class="g1"/>
</g>
<g opacity="0">
<path d="M1868.3,790.6l1.6,-1.4l6,6.7l-1.6,1.4Z" class="g1"/>
</g>
<g opacity="0">
<path d="M1878.7,780.5l1.4,-1.6l6.6,6l-1.4,1.6Z" class="g1"/>
</g>
<g opacity="0">
<path d="M1887.8,769.3l1.3,-1.7l7.2,5.3l-1.2,1.7Z" class="g1"/>
</g>
<g opacity="0">
<path d="M1895.8,757.3l1.1,-1.9l7.7,4.5l-1,1.8Z" class="g1"/>
</g>
<g opacity="0.02">
<path d="M1902.5,744.4l.8,-1.9l8.2,3.7l-.9,1.9Z" class="g1"/>
</g>
<g opacity="0.11">
<path d="M1907.7,731l.7,-2l8.5,2.7l-.6,2Z" class="g1"/>
</g>
<g opacity="0.22">
<path d="M1911.6,717l.4,-2l8.8,1.8l-.4,2.1Z" class="g1"/>
</g>
<g opacity="0.32">
<path d="M1914,702.8l.2,-2.1l8.9,.9l-.2,2.1Z" class="g1"/>
</g>
<g opacity="0.52">
<path d="M1914.8,686.2h9v2.1h-9v-2.1Z" class="g1"/>
</g>
<g opacity="0.52">
<path d="M1914.2,673.9l-.2,-2.1l8.9,-.9l.2,2.1Z" class="g1"/>
</g>
<g opacity="0.52">
<path d="M1912,659.6l-.4,-2.1l8.8,-1.8l.4,2Z" class="g1"/>
</g>
<g opacity="0.52">
<path d="M1908.4,645.6l-.7,-2l8.6,-2.8l.6,2Z" class="g1"/>
</g>
<g opacity="0.52">
<path d="M1903.3,632.1l-.8,-2l8.1,-3.6l.9,1.9Z" class="g1"/>
</g>
<g opacity="0.52">
<path d="M1896.9,619.1l-1.1,-1.8l7.8,-4.5l1,1.9Z" class="g1"/>
</g>
<g opacity="0.52">
<path d="M1889.1,607l-1.3,-1.8l7.3,-5.2l1.2,1.7Z" class="g1"/>
</g>
<g opacity="0.52">
<path d="M1880.1,595.6l-1.4,-1.5l6.6,-6l1.4,1.6Z" class="g1"/>
</g>
<g opacity="0.52">
<path d="M1869.9,585.3l-1.5,-1.4l5.9,-6.6l1.6,1.4Z" class="g1"/>
</g>
<g opacity="0.52">
<path d="M1858.8,576.2l-1.8,-1.3l5.3,-7.2l1.7,1.2Z" class="g1"/>
</g>
<g opacity="0.52">
<path d="M1846.7,568.2l-1.8,-1.1l4.4,-7.7l1.9,1Z" class="g1"/>
</g>
<g opacity="0.52">
<path d="M1833.9,561.5l-2,-.8l3.7,-8.2l1.9,.9Z" class="g1"/>
</g>
<g opacity="0.52">
<path d="M1820.4,556.2l-2,-.6l2.8,-8.5l2,.6Z" class="g1"/>
</g>
<g opacity="0.52">
<path d="M1806.5,552.4l-2.1,-.4l1.9,-8.8l2,.4Z" class="g1"/>
</g>
<g opacity="0.52">
<path d="M1792.2,550l-2.1,-.2l.9,-8.9l2.1,.2Z" class="g1"/>
</g>
</g>
<path d="M1889.9,687.3c0,62.6,-50.8,113.4,-113.4,113.4c-62.6,0,-113.4,-50.8,-113.4,-113.4c0,-62.6,50.8,-113.4,113.4,-113.4c62.6,0,113.4,50.8,113.4,113.4Z" class="gn"/>
<image x="1777" y="572" width="58" height="19" xlink:href="shade/24.png"/>
<image x="1777" y="572" width="115" height="113" xlink:href="shade/25.png"/>
<g clip-path="url(#c1)" style="mix-blend-mode: screen;">
<image x="1876" y="671" width="28" height="28" xlink:href="shade/26.png"/>
</g>
<g clip-path="url(#c1)" style="mix-blend-mode: screen;">
<image x="1881" y="676" width="18" height="18" xlink:href="shade/27.png"/>
</g>
<g clip-path="url(#c1)" style="mix-blend-mode: screen;">
<image x="1883" y="678" width="13" height="13" xlink:href="shade/28.png"/>
</g>
<g clip-path="url(#c1)" style="mix-blend-mode: multiply;">
<image x="1884" y="679" width="12" height="11" xlink:href="shade/29.png"/>
</g>
<g clip-path="url(#c1)">
<g opacity="0.45">
<path d="M1438.1,567.9c-66,0,-119.4,53.5,-119.4,119.4c0,66,53.4,119.4,119.4,119.4c65.9,0,119.4,-53.4,119.4,-119.4c0,-65.9,-53.5,-119.4,-119.4,-119.4m0,226.7c-59.2,0,-107.3,-48.1,-107.3,-107.3c0,-59.2,48.1,-107.2,107.3,-107.2c59.2,0,107.2,48,107.2,107.2c0,59.2,-48,107.3,-107.2,107.3Z" class="gb"/>
</g>
<g clip-path="url(#c1)">
<g opacity="0.43">
<path d="M1438.1,568.1c-65.9,0,-119.3,53.4,-119.3,119.2c0,65.9,53.4,119.3,119.3,119.3c65.8,0,119.2,-53.4,119.2,-119.3c0,-65.8,-53.4,-119.2,-119.2,-119.2m0,226.7c-59.4,0,-107.5,-48.1,-107.5,-107.5c0,-59.3,48.1,-107.4,107.5,-107.4c59.3,0,107.4,48.1,107.4,107.4c0,59.4,-48.1,107.5,-107.4,107.5Z" class="gc"/>
</g>
<g opacity="0.41">
<path d="M1438.1,568.2c-65.8,0,-119.1,53.4,-119.1,119.1c0,65.8,53.3,119.1,119.1,119.1c65.7,0,119.1,-53.3,119.1,-119.1c0,-65.7,-53.4,-119.1,-119.1,-119.1m0,226.7c-59.5,0,-107.6,-48.1,-107.6,-107.6c0,-59.4,48.1,-107.6,107.6,-107.6c59.4,0,107.6,48.2,107.6,107.6c0,59.5,-48.2,107.6,-107.6,107.6Z" class="gc"/>
</g>
<g opacity="0.4">
<path d="M1438.1,568.4c-65.7,0,-119,53.2,-119,118.9c0,65.7,53.3,119,119,119c65.7,0,118.9,-53.3,118.9,-119c0,-65.7,-53.2,-118.9,-118.9,-118.9m0,226.7c-59.6,0,-107.8,-48.2,-107.8,-107.8c0,-59.5,48.2,-107.8,107.8,-107.8c59.5,0,107.8,48.3,107.8,107.8c0,59.6,-48.3,107.8,-107.8,107.8Z" class="gd"/>
</g>
<g opacity="0.38">
<path d="M1438.1,568.6c-65.6,0,-118.8,53.1,-118.8,118.7c0,65.6,53.2,118.8,118.8,118.8c65.6,0,118.7,-53.2,118.7,-118.8c0,-65.6,-53.1,-118.7,-118.7,-118.7m0,226.7c-59.7,0,-108,-48.3,-108,-108c0,-59.6,48.3,-108,108,-108c59.6,0,108,48.4,108,108c0,59.7,-48.4,108,-108,108Z" class="gd"/>
</g>
<g opacity="0.36">
<path d="M1438.1,568.7c-65.5,0,-118.6,53.1,-118.6,118.6c0,65.5,53.1,118.6,118.6,118.6c65.5,0,118.6,-53.1,118.6,-118.6c0,-65.5,-53.1,-118.6,-118.6,-118.6m0,226.8c-59.8,0,-108.2,-48.4,-108.2,-108.2c0,-59.7,48.4,-108.2,108.2,-108.2c59.7,0,108.2,48.5,108.2,108.2c0,59.8,-48.5,108.2,-108.2,108.2Z" class="ge"/>
</g>
<g opacity="0.34">
<path d="M1438.1,568.9c-65.4,0,-118.5,53,-118.5,118.4c0,65.4,53.1,118.5,118.5,118.5c65.4,0,118.4,-53.1,118.4,-118.5c0,-65.4,-53,-118.4,-118.4,-118.4m0,226.8c-59.9,0,-108.4,-48.5,-108.4,-108.4c0,-59.8,48.5,-108.4,108.4,-108.4c59.8,0,108.4,48.6,108.4,108.4c0,59.9,-48.6,108.4,-108.4,108.4Z" class="ge"/>
</g>
<g opacity="0.32">
<path d="M1438.1,569c-65.4,0,-118.3,53,-118.3,118.3c0,65.4,52.9,118.3,118.3,118.3c65.3,0,118.3,-52.9,118.3,-118.3C1556.4,622,1503.4,569,1438.1,569m0,226.9c-60,0,-108.6,-48.6,-108.6,-108.6c0,-60,48.6,-108.6,108.6,-108.6c60,0,108.6,48.6,108.6,108.6c0,60,-48.6,108.6,-108.6,108.6Z" class="gf"/>
</g>
<g opacity="0.31">
<path d="M1438.1,569.2c-65.3,0,-118.2,52.9,-118.2,118.1c0,65.3,52.9,118.1,118.2,118.1c65.2,0,118.1,-52.8,118.1,-118.1c0,-65.2,-52.9,-118.1,-118.1,-118.1m0,226.9c-60.1,0,-108.8,-48.7,-108.8,-108.8c0,-60.1,48.7,-108.8,108.8,-108.8c60.1,0,108.8,48.7,108.8,108.8c0,60.1,-48.7,108.8,-108.8,108.8Z" class="gf"/>
</g>
<g opacity="0.29">
<path d="M1438.1,569.4c-65.2,0,-118,52.8,-118,117.9c0,65.2,52.8,118,118,118c65.1,0,117.9,-52.8,117.9,-118c0,-65.1,-52.8,-117.9,-117.9,-117.9m0,226.9c-60.2,0,-109,-48.8,-109,-109c0,-60.2,48.8,-109,109,-109c60.2,0,109,48.8,109,109c0,60.2,-48.8,109,-109,109Z" class="gg"/>
</g>
<g opacity="0.27">
<path d="M1438.1,569.5c-65.1,0,-117.8,52.8,-117.8,117.8c0,65.1,52.7,117.8,117.8,117.8c65,0,117.8,-52.7,117.8,-117.8c0,-65,-52.8,-117.8,-117.8,-117.8m0,227c-60.3,0,-109.2,-48.9,-109.2,-109.2c0,-60.3,48.9,-109.2,109.2,-109.2c60.3,0,109.2,48.9,109.2,109.2c0,60.3,-48.9,109.2,-109.2,109.2Z" class="gg"/>
</g>
<g opacity="0.25">
<path d="M1438.1,569.7c-65,0,-117.7,52.7,-117.7,117.6c0,65,52.7,117.7,117.7,117.7c64.9,0,117.6,-52.7,117.6,-117.7c0,-64.9,-52.7,-117.6,-117.6,-117.6m0,227c-60.4,0,-109.4,-49,-109.4,-109.4c0,-60.4,49,-109.4,109.4,-109.4c60.4,0,109.4,49,109.4,109.4c0,60.4,-49,109.4,-109.4,109.4Z" class="g0"/>
</g>
<g opacity="0.23">
<path d="M1438.1,569.9c-64.9,0,-117.5,52.5,-117.5,117.4c0,64.9,52.6,117.5,117.5,117.5c64.9,0,117.4,-52.6,117.4,-117.5c0,-64.9,-52.5,-117.4,-117.4,-117.4m0,227c-60.6,0,-109.6,-49,-109.6,-109.6c0,-60.5,49,-109.6,109.6,-109.6c60.5,0,109.6,49.1,109.6,109.6c0,60.6,-49.1,109.6,-109.6,109.6Z" class="g0"/>
</g>
<g opacity="0.22">
<path d="M1438.1,570c-64.8,0,-117.3,52.5,-117.3,117.3c0,64.8,52.5,117.3,117.3,117.3c64.8,0,117.3,-52.5,117.3,-117.3C1555.4,622.5,1502.9,570,1438.1,570m0,227.1c-60.7,0,-109.8,-49.1,-109.8,-109.8c0,-60.6,49.1,-109.8,109.8,-109.8c60.6,0,109.8,49.2,109.8,109.8c0,60.7,-49.2,109.8,-109.8,109.8Z" class="gh"/>
</g>
<g opacity="0.2">
<path d="M1438.1,570.2c-64.7,0,-117.2,52.4,-117.2,117.1c0,64.7,52.5,117.2,117.2,117.2c64.7,0,117.1,-52.5,117.1,-117.2c0,-64.7,-52.4,-117.1,-117.1,-117.1m0,227.1c-60.8,0,-110,-49.2,-110,-110c0,-60.7,49.2,-110,110,-110c60.7,0,110,49.3,110,110c0,60.8,-49.3,110,-110,110Z" class="gh"/>
</g>
<g opacity="0.18">
<path d="M1438.1,570.3c-64.6,0,-117,52.4,-117,117c0,64.6,52.4,117,117,117c64.6,0,117,-52.4,117,-117c0,-64.6,-52.4,-117,-117,-117m0,227.2c-60.9,0,-110.2,-49.3,-110.2,-110.2c0,-60.8,49.3,-110.2,110.2,-110.2c60.8,0,110.2,49.4,110.2,110.2c0,60.9,-49.4,110.2,-110.2,110.2Z" class="gi"/>
</g>
<g opacity="0.16">
<path d="M1438.1,570.5c-64.6,0,-116.9,52.3,-116.9,116.8c0,64.5,52.3,116.9,116.9,116.9c64.5,0,116.8,-52.4,116.8,-116.9c0,-64.5,-52.3,-116.8,-116.8,-116.8m0,227.2c-61,0,-110.4,-49.4,-110.4,-110.4c0,-60.9,49.4,-110.4,110.4,-110.4c60.9,0,110.3,49.5,110.3,110.4c0,61,-49.4,110.4,-110.3,110.4Z" class="gi"/>
</g>
<g opacity="0.14">
<path d="M1438.1,570.7c-64.5,0,-116.7,52.2,-116.7,116.6c0,64.5,52.2,116.7,116.7,116.7c64.4,0,116.6,-52.2,116.6,-116.7c0,-64.4,-52.2,-116.6,-116.6,-116.6m0,227.2c-61.1,0,-110.6,-49.5,-110.6,-110.6c0,-61,49.5,-110.5,110.6,-110.5c61,0,110.5,49.5,110.5,110.5c0,61.1,-49.5,110.6,-110.5,110.6Z" class="gj"/>
</g>
<g opacity="0.13">
<path d="M1438.1,570.8c-64.4,0,-116.5,52.2,-116.5,116.5c0,64.4,52.1,116.5,116.5,116.5c64.3,0,116.5,-52.1,116.5,-116.5c0,-64.3,-52.2,-116.5,-116.5,-116.5m0,227.3c-61.2,0,-110.8,-49.6,-110.8,-110.8c0,-61.2,49.6,-110.7,110.8,-110.7c61.1,0,110.7,49.5,110.7,110.7c0,61.2,-49.6,110.8,-110.7,110.8Z" class="gj"/>
</g>
<g opacity="0.11">
<path d="M1438.1,571c-64.3,0,-116.4,52.1,-116.4,116.3c0,64.3,52.1,116.4,116.4,116.4c64.2,0,116.3,-52.1,116.3,-116.4C1554.4,623.1,1502.3,571,1438.1,571m0,227.3c-61.3,0,-111,-49.7,-111,-111c0,-61.3,49.7,-110.9,111,-110.9c61.3,0,110.9,49.6,110.9,110.9c0,61.3,-49.6,111,-110.9,111Z" class="gk"/>
</g>
<g opacity="0.09">
<path d="M1438.1,571.1c-64.2,0,-116.2,52.1,-116.2,116.2c0,64.2,52,116.2,116.2,116.2c64.1,0,116.2,-52,116.2,-116.2c0,-64.1,-52.1,-116.2,-116.2,-116.2m0,227.4c-61.4,0,-111.2,-49.8,-111.2,-111.2c0,-61.4,49.8,-111.1,111.2,-111.1c61.4,0,111.1,49.7,111.1,111.1c0,61.4,-49.7,111.2,-111.1,111.2Z" class="gk"/>
</g>
<g opacity="0.07">
<path d="M1438.1,571.3c-64.1,0,-116,52,-116,116c0,64.1,51.9,116,116,116c64,0,116,-51.9,116,-116c0,-64,-52,-116,-116,-116m0,227.4c-61.5,0,-111.4,-49.9,-111.4,-111.4c0,-61.5,49.9,-111.3,111.4,-111.3c61.5,0,111.3,49.8,111.3,111.3c0,61.5,-49.8,111.4,-111.3,111.4Z" class="gl"/>
</g>
<g opacity="0.05">
<path d="M1438.1,571.5c-64,0,-115.9,51.8,-115.9,115.8c0,64,51.9,115.9,115.9,115.9c64,0,115.8,-51.9,115.8,-115.9c0,-64,-51.8,-115.8,-115.8,-115.8m0,227.4c-61.6,0,-111.6,-50,-111.6,-111.6c0,-61.6,50,-111.5,111.6,-111.5c61.6,0,111.5,49.9,111.5,111.5c0,61.6,-49.9,111.6,-111.5,111.6Z" class="gl"/>
</g>
<g opacity="0.04">
<path d="M1438.1,571.6c-63.9,0,-115.7,51.8,-115.7,115.7c0,63.9,51.8,115.7,115.7,115.7c63.9,0,115.7,-51.8,115.7,-115.7c0,-63.9,-51.8,-115.7,-115.7,-115.7m0,227.5c-61.8,0,-111.8,-50.1,-111.8,-111.8c0,-61.7,50,-111.7,111.8,-111.7c61.7,0,111.7,50,111.7,111.7c0,61.7,-50,111.8,-111.7,111.8Z" class="gm"/>
</g>
<g opacity="0.02">
<path d="M1438.1,571.8c-63.8,0,-115.6,51.7,-115.6,115.5c0,63.8,51.8,115.6,115.6,115.6c63.8,0,115.5,-51.8,115.5,-115.6c0,-63.8,-51.7,-115.5,-115.5,-115.5m0,227.5c-61.9,0,-112,-50.1,-112,-112c0,-61.8,50.1,-111.9,112,-111.9c61.8,0,111.9,50.1,111.9,111.9c0,61.9,-50.1,112,-111.9,112Z" class="gm"/>
</g>
<g opacity="0">
<path d="M1438.1,572c-63.7,0,-115.4,51.6,-115.4,115.3c0,63.7,51.7,115.4,115.4,115.4c63.7,0,115.3,-51.7,115.3,-115.4C1553.4,623.6,1501.8,572,1438.1,572m0,227.5c-62,0,-112.2,-50.2,-112.2,-112.2c0,-61.9,50.2,-112.1,112.2,-112.1c61.9,0,112.1,50.2,112.1,112.1c0,62,-50.2,112.2,-112.1,112.2Z" class="g1"/>
</g>
</g>
<g opacity="0.52">
<path d="M1437.6,549.2h-2.1v-9h2.1v9Z" class="g1"/>
</g>
<g opacity="0.42">
<path d="M1423.2,549.8l-2.1,.2l-.9,-8.9l2.1,-.2Z" class="g1"/>
</g>
<g opacity="0.32">
<path d="M1408.9,552l-2.1,.4l-1.8,-8.8l2,-.4Z" class="g1"/>
</g>
<g opacity="0.22">
<path d="M1394.9,555.6l-2,.6l-2.8,-8.5l2,-.6Z" class="g1"/>
</g>
<g opacity="0.11">
<path d="M1381.4,560.7l-2,.8l-3.6,-8.1l1.9,-.9Z" class="g1"/>
</g>
<g opacity="0.32">
<path d="M1368.4,567.1l-1.8,1.1l-4.5,-7.8l1.9,-1Z" class="g1"/>
</g>
<g opacity="0.52">
<path d="M1356.2,574.9l-1.7,1.3l-5.2,-7.3l1.7,-1.2Z" class="g1"/>
</g>
<g opacity="0.52">
<path d="M1344.9,583.9l-1.5,1.4l-6,-6.6l1.5,-1.4Z" class="g1"/>
</g>
<g opacity="0.52">
<path d="M1334.6,594.1l-1.4,1.5l-6.6,-5.9l1.4,-1.6Z" class="g1"/>
</g>
<g opacity="0.52">
<path d="M1325.5,605.2l-1.3,1.8l-7.2,-5.3l1.2,-1.7Z" class="g1"/>
</g>
<g opacity="0.52">
<path d="M1317.5,617.3l-1.1,1.8l-7.7,-4.4l1,-1.9Z" class="g1"/>
</g>
<g opacity="0.52">
<path d="M1310.8,630.1l-.8,2l-8.2,-3.7l.8,-1.9Z" class="g1"/>
</g>
<g opacity="0.52">
<path d="M1305.5,643.6l-.6,2l-8.5,-2.8l.6,-2Z" class="g1"/>
</g>
<g opacity="0.52">
<path d="M1301.7,657.5l-.4,2.1l-8.8,-1.9l.4,-2Z" class="g1"/>
</g>
<g opacity="0.52">
<path d="M1299.3,671.8l-.2,2.1l-8.9,-.9l.2,-2.1Z" class="g1"/>
</g>
<g opacity="0.52">
<path d="M1298.5,688.3h-9v-2.1h9v2.1Z" class="g1"/>
</g>
<g opacity="0.52">
<path d="M1299.1,700.7l.2,2.1l-8.9,.9l-.2,-2.1Z" class="g1"/>
</g>
<g opacity="0.52">
<path d="M1301.3,715l.4,2l-8.8,1.9l-.4,-2.1Z" class="g1"/>
</g>
<g opacity="0.52">
<path d="M1304.9,729l.6,2l-8.5,2.7l-.6,-2Z" class="g1"/>
</g>
<g opacity="0.52">
<path d="M1310,742.5l.8,1.9l-8.2,3.7l-.8,-1.9Z" class="g1"/>
</g>
<g opacity="0.52">
<path d="M1316.4,755.4l1.1,1.9l-7.8,4.4l-1,-1.8Z" class="g1"/>
</g>
<g opacity="0.52">
<path d="M1324.2,767.6l1.3,1.7l-7.3,5.3l-1.2,-1.7Z" class="g1"/>
</g>
<g opacity="0.52">
<path d="M1333.2,778.9l1.4,1.6l-6.6,6l-1.4,-1.6Z" class="g1"/>
</g>
<g opacity="0.52">
<path d="M1343.4,789.2l1.5,1.4l-6,6.7l-1.5,-1.4Z" class="g1"/>
</g>
<g opacity="0.52">
<path d="M1354.5,798.4l1.7,1.3l-5.2,7.2l-1.7,-1.2Z" class="g1"/>
</g>
<g opacity="0.52">
<path d="M1366.6,806.4l1.8,1l-4.4,7.8l-1.9,-1.1Z" class="g1"/>
</g>
<g opacity="0.52">
<path d="M1379.4,813l2,.9l-3.7,8.2l-1.9,-.9Z" class="g1"/>
</g>
<g opacity="0.52">
<path d="M1392.9,818.3l2,.7l-2.8,8.5l-2,-.6Z" class="g1"/>
</g>
<g opacity="0.52">
<path d="M1406.8,822.2l2.1,.4l-1.9,8.8l-2,-.5Z" class="g1"/>
</g>
<g opacity="0.52">
<path d="M1421.1,824.6l2.1,.2l-.9,8.9l-2.1,-.2Z" class="g1"/>
</g>
<g opacity="0.52">
<path d="M1435.5,825.4h2.1v9h-2.1v-9Z" class="g1"/>
</g>
<g opacity="0.52">
<path d="M1450,824.8l2.1,-.3l.9,9l-2.1,.2Z" class="g1"/>
</g>
<g opacity="0.52">
<path d="M1464.3,822.6l2,-.4l1.9,8.7l-2.1,.5Z" class="g1"/>
</g>
<g opacity="0.52">
<path d="M1478.3,819l2,-.7l2.7,8.5l-2,.7Z" class="g1"/>
</g>
<g opacity="0.52">
<path d="M1491.8,813.9l1.9,-.9l3.7,8.2l-2,.9Z" class="g1"/>
</g>
<g opacity="0.52">
<path d="M1504.7,807.4l1.9,-1l4.4,7.7l-1.8,1.1Z" class="g1"/>
</g>
<g opacity="0.52">
<path d="M1516.9,799.7l1.7,-1.3l5.3,7.3l-1.7,1.2Z" class="g1"/>
</g>
<g opacity="0.52">
<path d="M1528.2,790.6l1.6,-1.4l6,6.7l-1.6,1.4Z" class="g1"/>
</g>
<g opacity="0.52">
<path d="M1538.5,780.5l1.4,-1.6l6.7,6l-1.4,1.6Z" class="g1"/>
</g>
<g opacity="0.52">
<path d="M1547.7,769.3l1.2,-1.7l7.3,5.3l-1.2,1.7Z" class="g1"/>
</g>
<g opacity="0.52">
<path d="M1555.7,757.3l1,-1.9l7.8,4.5l-1.1,1.8Z" class="g1"/>
</g>
<g opacity="0.52">
<path d="M1562.3,744.4l.9,-1.9l8.2,3.7l-.9,1.9Z" class="g1"/>
</g>
<g opacity="0.52">
<path d="M1567.6,731l.7,-2l8.5,2.7l-.7,2Z" class="g1"/>
</g>
<g opacity="0.52">
<path d="M1571.5,717l.4,-2l8.8,1.8l-.5,2.1Z" class="g1"/>
</g>
<g opacity="0.52">
<path d="M1573.8,702.8l.3,-2.1l8.9,.9l-.3,2.1Z" class="g1"/>
</g>
<g opacity="0.52">
<path d="M1574.7,686.2h9v2.1h-9v-2.1Z" class="g1"/>
</g>
<g opacity="0.52">
<path d="M1574.1,673.9l-.3,-2.1l9,-.9l.2,2.1Z" class="g1"/>
</g>
<g opacity="0.52">
<path d="M1571.9,659.6l-.4,-2.1l8.7,-1.8l.5,2Z" class="g1"/>
</g>
<g opacity="0.52">
<path d="M1568.3,645.6l-.7,-2l8.5,-2.8l.7,2Z" class="g1"/>
</g>
<g opacity="0.52">
<path d="M1563.2,632.1l-.9,-2l8.2,-3.6l.9,1.9Z" class="g1"/>
</g>
<g opacity="0.52">
<path d="M1556.7,619.1l-1,-1.8l7.7,-4.5l1.1,1.9Z" class="g1"/>
</g>
<g opacity="0.52">
<path d="M1548.9,607l-1.2,-1.8L1555,600l1.2,1.7Z" class="g1"/>
</g>
<g opacity="0.52">
<path d="M1539.9,595.6l-1.4,-1.5l6.7,-6l1.4,1.6Z" class="g1"/>
</g>
<g opacity="0.52">
<path d="M1529.8,585.3l-1.6,-1.4l6,-6.6l1.6,1.4Z" class="g1"/>
</g>
<g opacity="0.52">
<path d="M1518.6,576.2l-1.7,-1.3l5.3,-7.2l1.7,1.2Z" class="g1"/>
</g>
<g opacity="0.52">
<path d="M1506.6,568.2l-1.9,-1.1l4.5,-7.7l1.8,1Z" class="g1"/>
</g>
<g opacity="0.52">
<path d="M1493.7,561.5l-1.9,-.8l3.6,-8.2l2,.9Z" class="g1"/>
</g>
<g opacity="0.52">
<path d="M1480.3,556.2l-2,-.6l2.7,-8.5l2,.6Z" class="g1"/>
</g>
<g opacity="0.52">
<path d="M1466.3,552.4l-2,-.4l1.8,-8.8l2.1,.4Z" class="g1"/>
</g>
<g opacity="0.52">
<path d="M1452.1,550l-2.1,-.2l.9,-8.9l2.1,.2Z" class="g1"/>
</g>
</g>
<path d="M1551.4,687.3c0,62.6,-50.7,113.4,-113.3,113.4c-62.6,0,-113.4,-50.8,-113.4,-113.4c0,-62.6,50.8,-113.4,113.4,-113.4c62.6,0,113.3,50.8,113.3,113.4Z" class="gn"/>
<image x="1323" y="572" width="230" height="230" xlink:href="shade/30.png"/>
<g clip-path="url(#c1)" style="mix-blend-mode: screen;">
<image x="1368" y="575" width="27" height="28" xlink:href="shade/31.png"/>
</g>
<g clip-path="url(#c1)" style="mix-blend-mode: screen;">
<image x="1372" y="580" width="19" height="18" xlink:href="shade/32.png"/>
</g>
<g clip-path="url(#c1)" style="mix-blend-mode: screen;">
<image x="1375" y="583" width="13" height="13" xlink:href="shade/33.png"/>
</g>
<g clip-path="url(#c1)" style="mix-blend-mode: multiply;">
<image x="1376" y="583" width="11" height="12" xlink:href="shade/34.png"/>
</g>
<path d="M2190.1,11216.9h-343v-65.6c0,-16.9,13.7,-30.6,30.5,-30.6h312.5v96.2Zm420.1,0h-343v-65.6c0,-16.9,13.7,-30.6,30.6,-30.6h312.4v96.2Z" class="go"/>
<image clip-path="url(#cb)" preserveAspectRatio="none" x="487" y="63" width="367" height="100" xlink:href="img/88.png"/>
</svg>